<?xml version="1.0" encoding="UTF-8" standalone="no"?>
<!-- Created with Inkscape (http://www.inkscape.org/) -->

<svg
   xmlns:dc="http://purl.org/dc/elements/1.1/"
   xmlns:cc="http://creativecommons.org/ns#"
   xmlns:rdf="http://www.w3.org/1999/02/22-rdf-syntax-ns#"
   xmlns:svg="http://www.w3.org/2000/svg"
   xmlns="http://www.w3.org/2000/svg"
   xmlns:sodipodi="http://sodipodi.sourceforge.net/DTD/sodipodi-0.dtd"
   xmlns:inkscape="http://www.inkscape.org/namespaces/inkscape"
   version="1.1"
   id="svg870"
   width="157"
   height="100"
   viewBox="0 0 157 100"
   sodipodi:docname="dc.svg"
   inkscape:version="0.92.3 (2405546, 2018-03-11)">
  <metadata
     id="metadata876">
    <rdf:RDF>
      <cc:Work
         rdf:about="">
        <dc:format>image/svg+xml</dc:format>
        <dc:type
           rdf:resource="http://purl.org/dc/dcmitype/StillImage" />
        <dc:title></dc:title>
      </cc:Work>
    </rdf:RDF>
  </metadata>
  <defs
     id="defs874" />
  <sodipodi:namedview
     pagecolor="#ffffff"
     bordercolor="#666666"
     borderopacity="1"
     objecttolerance="10"
     gridtolerance="10"
     guidetolerance="10"
     inkscape:pageopacity="0"
     inkscape:pageshadow="2"
     inkscape:window-width="3840"
     inkscape:window-height="2031"
     id="namedview872"
     showgrid="false"
     inkscape:zoom="6.5555556"
     inkscape:cx="86.224101"
     inkscape:cy="22.010442"
     inkscape:window-x="0"
     inkscape:window-y="55"
     inkscape:window-maximized="1"
     inkscape:current-layer="svg870"
     fit-margin-top="0"
     fit-margin-left="0"
     fit-margin-right="0"
     fit-margin-bottom="0" />
  <path
     style="fill:#4d4d4d;stroke-width:0.22057648"
     d="m 107.35485,73.409156 v -25.93908 l 14.94407,0.07376 14.94404,0.07375 2.20578,0.598493 c 2.5447,0.69046 5.78291,2.186919 7.70786,3.561993 1.6587,1.184896 4.58849,4.225115 5.71393,5.929303 2.8538,4.321397 3.88353,8.509703 3.88783,15.813459 0.003,5.771248 -0.56719,9.031134 -2.185,12.483442 -3.0086,6.420172 -8.18936,10.731107 -15.24071,12.681856 -1.86282,0.515347 -1.91968,0.517332 -16.92345,0.589599 l -15.05435,0.07249 z m 29.41881,18.983252 c 5.78075,-1.106049 10.49412,-5.184704 12.38608,-10.718165 0.77008,-2.252311 0.97202,-4.42794 0.87965,-9.476894 -0.0655,-3.578275 -0.15838,-4.579306 -0.55273,-5.955565 -1.36079,-4.749095 -4.29763,-8.332829 -8.49389,-10.364848 -3.40573,-1.649209 -3.10437,-1.616426 -15.71608,-1.70922 l -11.30454,-0.08317 v 19.313211 19.313209 h 10.56827 c 8.29701,0 10.92609,-0.06852 12.23324,-0.318558 z m -15.96364,-18.8716 v -12.57286 h 6.93731 c 4.30012,0 7.38163,0.0943 8.10618,0.248204 3.85618,0.818849 7.06361,4.241134 7.39446,7.889813 l 0.12215,1.346774 h -3.33928 c -3.03291,0 -3.33936,-0.03541 -3.34012,-0.386012 -0.001,-0.694565 -0.8753,-1.839676 -1.65123,-2.163896 -0.55097,-0.230185 -1.7039,-0.317588 -4.18976,-0.317588 h -3.42963 l 0.0587,5.900419 0.0587,5.900423 3.35722,0.06082 c 2.56105,0.04645 3.5407,-0.01583 4.13098,-0.262447 0.78749,-0.329026 1.66341,-1.470483 1.66491,-2.169603 6.7e-4,-0.35059 0.3072,-0.386005 3.3401,-0.386005 h 3.33928 l -0.11773,1.298487 c -0.24222,2.671238 -2.35215,5.734618 -4.80627,6.978229 -2.18535,1.107403 -3.07066,1.208072 -10.62394,1.208072 h -7.01211 z M 93.899684,71.204756 V 47.492782 h 3.308644 3.308652 v 23.711974 23.71197 H 97.208328 93.899684 Z M 80.665095,68.998988 V 47.492782 h 3.308651 3.308643 v 21.506206 21.50621 H 83.973746 80.665095 Z M 67.209929,66.682936 V 47.492782 h 3.308645 3.308651 V 66.682936 85.873095 H 70.518574 67.209929 Z M 53.754763,64.477171 V 47.492782 h 3.308648 3.308647 v 16.984389 16.98439 H 57.063411 53.754763 Z M 40.520174,62.271407 V 47.492782 h 3.308648 3.308647 V 62.271407 77.050034 H 43.828822 40.520174 Z M 27.065013,60.065642 v -12.57286 h 3.308647 3.308647 v 12.57286 12.572864 H 30.37366 27.065013 Z M 13.830424,57.859877 V 47.492782 h 3.308647 3.308647 V 57.859877 68.226972 H 17.139071 13.830424 Z M 0.37525773,55.543824 V 47.492782 H 3.683905 6.9925523 v 8.051042 8.051042 H 3.683905 0.37525773 Z M 101.61986,40.699509 c -0.3033,-0.04853 -2.205654,-1.319227 -4.227468,-2.823659 -2.021836,-1.504442 -3.734063,-2.735347 -3.804947,-2.735347 -0.07086,0 -0.128898,1.191113 -0.128898,2.646918 v 2.646913 h -1.544041 -1.544034 v -5.293831 -5.293836 h 0.571242 c 0.38504,0 1.840958,0.932645 4.466673,2.861299 l 3.895438,2.861298 0.06179,-2.751009 0.06179,-2.751011 h 1.537445 1.53745 v 5.280817 c 0,2.904449 -0.0744,5.316583 -0.16543,5.360285 -0.091,0.0437 -0.41359,0.0397 -0.71688,-0.0083 z M 4.1983859,40.258232 C 1.9478026,39.457539 0.70328254,37.991557 0.44957822,35.842292 0.18473479,33.598548 1.4770234,31.497018 3.7441086,30.484681 c 0.977402,-0.436447 1.5224327,-0.515821 3.5793089,-0.521282 2.7317155,-0.0073 4.1802825,0.364426 5.3619385,1.375777 l 0.704507,0.602968 -0.96964,1.102882 c -0.928407,1.055984 -0.987383,1.086825 -1.386971,0.725286 -0.76569,-0.692784 -2.0041029,-1.05615 -3.5995468,-1.05615 -2.657409,0 -3.7498002,0.776636 -3.7498002,2.665918 0,1.723352 1.1992468,2.520721 3.7498002,2.493226 1.6562124,-0.01783 2.6196768,-0.296015 3.4007938,-0.981848 l 0.744432,-0.653624 0.934154,1.115739 0.934142,1.115738 -0.49183,0.523529 c -0.27051,0.287949 -1.003182,0.749725 -1.628158,1.026177 -1.5902327,0.703418 -5.4591305,0.833241 -7.1288531,0.239215 z m 25.2378791,0.216606 c -0.380605,-0.04384 -0.821703,-0.351902 -1.184206,-0.827162 l -0.577676,-0.757377 h -3.154189 -3.154189 l -0.477134,0.772018 -0.477135,0.772017 h -1.768278 -1.768279 l 0.407666,-0.612292 c 6.427186,-9.65313 7.052906,-10.462621 7.732392,-10.003483 0.157119,0.106166 6.551135,9.291393 7.209749,10.357053 0.140838,0.227883 -1.69593,0.424969 -2.788721,0.299226 z m -4.273421,-5.335983 -0.584969,-0.883951 -0.521043,0.706229 c -0.28657,0.388425 -0.521043,0.786205 -0.521043,0.883954 0,0.09774 0.497703,0.177722 1.106012,0.177722 h 1.106012 z m 13.206714,5.340105 -1.378603,-0.06562 v -5.18845 -5.188445 l 4.797534,0.07057 c 4.602356,0.06769 4.835353,0.09223 5.727006,0.60299 2.08147,1.192334 2.152206,4.187828 0.128762,5.454687 -0.339412,0.212507 -0.654036,0.411972 -0.699144,0.443257 -0.04508,0.03128 0.671103,0.875357 1.591597,1.875716 0.920493,1.000355 1.638759,1.853697 1.596146,1.896309 -0.0426,0.0426 -0.896216,0.09705 -1.896902,0.121042 l -1.819426,0.04357 -1.634375,-1.80051 -1.634375,-1.800511 -1.479255,0.0359 -1.479255,0.0359 -0.0659,1.654066 c -0.03625,0.909736 -0.135517,1.703811 -0.220576,1.764608 -0.08506,0.0608 -0.775033,0.08092 -1.533265,0.04494 z m 7.468812,-6.597424 c 0.207301,-0.207774 0.203647,-0.341212 -0.01655,-0.606585 -0.226587,-0.273033 -0.82144,-0.340212 -3.012537,-0.340212 h -2.730199 v 0.67972 0.679717 l 2.746798,-0.07314 c 1.761413,-0.0469 2.842141,-0.168696 3.01255,-0.339507 z m 9.846438,6.593302 -0.606586,-0.06976 v -5.184325 -5.18432 l 4.797539,0.07057 c 4.485699,0.06598 4.858183,0.102968 5.730439,0.569028 1.153863,0.616522 1.603977,1.449022 1.602902,2.964664 -0.0011,1.55759 -0.58206,2.490734 -1.935104,3.108171 -0.856953,0.39106 -1.558883,0.490059 -3.955253,0.557854 l -2.913416,0.08243 -0.06438,1.550006 -0.06438,1.550005 -0.992594,0.02771 c -0.545927,0.0153 -1.265558,-0.0042 -1.59918,-0.04204 z m 8.0104,-6.224401 c 0.514716,-0.275468 0.562112,-0.995943 0.07775,-1.181811 -0.191901,-0.07364 -1.482273,-0.13389 -2.867494,-0.13389 H 58.38688 v 0.772017 0.772018 h 2.440831 c 1.34247,0 2.632842,-0.102748 2.867494,-0.228337 z m 9.689735,6.220665 c -0.137173,-0.04591 -0.219451,-2.009368 -0.219451,-5.238691 v -5.165167 h 5.404127 5.404127 v 1.433747 1.433748 h -3.876262 c -3.572812,0 -3.870472,0.03022 -3.802254,0.386008 0.06491,0.338419 0.406799,0.393645 2.773372,0.447943 l 2.699377,0.06193 v 1.426958 1.426958 H 79.01077 c -2.61015,0 -2.757202,0.02354 -2.757202,0.441152 0,0.425297 0.147052,0.441154 4.090741,0.441154 h 4.090742 l -0.06519,1.437665 -0.06519,1.437662 -5.350106,0.05129 c -2.942564,0.02812 -5.448859,0.0182 -5.569557,-0.02234 z m 40.752637,0.0069 -1.26832,-0.06617 v -3.7387 -3.738794 h -2.31605 -2.31605 v -1.433747 -1.433748 h 6.17614 6.17614 v 1.433748 1.433747 h -2.31605 -2.31606 v 3.726201 c 0,2.791913 -0.0692,3.745948 -0.27571,3.804938 -0.15165,0.04329 -0.84646,0.04894 -1.54404,0.01241 z m 19.77533,-1.756822 -1.67998,-1.835622 -1.46536,0.06468 -1.46536,0.06468 -0.0644,1.709466 -0.0644,1.709468 h -1.53476 -1.53476 v -5.198901 -5.19897 l 4.79754,0.07057 c 4.1979,0.06175 4.9042,0.123495 5.65075,0.494065 1.12028,0.556068 1.68157,1.503747 1.6826,2.840959 0.001,1.292181 -0.4421,2.206046 -1.32151,2.725529 -0.36456,0.215353 -0.66286,0.449081 -0.66286,0.51939 0,0.07031 0.70555,0.917427 1.56787,1.882488 0.90356,1.011224 1.44094,1.773661 1.26831,1.799509 -0.16476,0.02467 -1.01821,0.0772 -1.8966,0.116631 l -1.59706,0.07169 z m 0.66878,-4.678574 c 0.63249,-0.240475 0.75031,-0.769765 0.2169,-0.974454 -0.1919,-0.07364 -1.5319,-0.13389 -2.97778,-0.13389 -2.60702,0 -2.62889,0.0043 -2.62889,0.514678 0,0.283074 0.0662,0.580852 0.14706,0.661729 0.22944,0.22944 4.6098,0.172568 5.24271,-0.06806 z m 13.22972,6.409645 c -0.0501,-0.0506 -0.0911,-0.952616 -0.0911,-2.004596 v -1.912684 l -2.97398,-3.178956 -2.974,-3.178956 1.98286,-0.06344 1.98285,-0.06344 1.81829,1.889876 1.81829,1.889872 1.65433,-1.878236 1.65433,-1.878234 1.97332,-0.0033 1.97329,-0.0033 -0.66691,0.716873 c -0.3668,0.394281 -1.67664,1.841038 -2.91076,3.215013 l -2.24378,2.49849 v 1.949714 1.949715 l -1.45298,0.07403 c -0.79913,0.04067 -1.49395,0.03267 -1.54403,-0.01793 z M 0.37525773,12.000487 V 0.95108007 H 7.7356749 c 7.9830351,0 9.8829291,0.18181863 12.6045951,1.20625013 4.969299,1.8704372 7.489288,6.2113293 6.726645,11.5871858 -0.628408,4.429595 -3.517285,7.310592 -8.661652,8.638042 -1.649196,0.425555 -2.56882,0.478207 -9.9238191,0.568179 l -8.10618617,0.09916 z M 16.728454,16.540366 c 1.782851,-0.430263 2.649496,-1.002715 3.238531,-2.139165 0.440754,-0.850378 0.50013,-1.235152 0.427491,-2.770128 C 20.326785,10.200948 20.207744,9.7047117 19.792302,9.1212815 18.674655,7.5516879 15.905593,6.9066451 10.285236,6.9066451 H 6.9925523 v 5.1076339 5.107636 l 4.2460977,-0.1407 c 2.335353,-0.07738 4.805769,-0.275767 5.489804,-0.440849 z m 25.700107,5.831596 c 0.224216,-0.350224 3.633598,-5.457491 7.576402,-11.349485 l 7.168736,-10.71270941 1.102882,-0.003471 1.102883,-0.003471 2.352117,3.46731631 c 1.293667,1.907023 4.786289,7.0158391 7.76137,11.3529261 l 5.409269,7.885609 h -3.795074 -3.795062 l -1.191348,-1.764612 -1.191361,-1.764612 h -6.57868 -6.578693 l -1.15924,1.759643 -1.15924,1.759647 -3.716314,0.0049 -3.716314,0.0049 0.407667,-0.636769 z M 60.457297,13.027643 C 59.98609,12.222548 58.327769,9.995269 58.202082,9.9986799 c -0.08037,0.00222 -0.451562,0.4736621 -0.824929,1.0477371 -0.37338,0.574076 -0.856278,1.316738 -1.073104,1.650361 l -0.394253,0.606586 h 2.354433 c 1.822568,0 2.317983,-0.06228 2.193068,-0.275721 z m 35.595765,1.985189 -0.0579,-7.9958985 -4.797539,-0.059443 -4.797533,-0.059443 V 3.9245613 0.95108007 H 99.414095 112.42811 V 3.9288623 c 0,2.2318597 -0.0691,2.9793408 -0.27572,2.9840007 -0.15165,0.00347 -2.36017,0.028236 -4.90783,0.055146 l -4.63211,0.048925 -0.0579,7.995898 -0.0579,7.995898 H 99.303811 96.11095 Z m 27.881798,7.804242 c 0.0404,-0.105408 3.44833,-5.219624 7.57312,-11.364916 l 7.4996,-11.17325748 1.08667,0.0603665 1.08666,0.0603665 7.66605,11.13911048 c 4.21634,6.126516 7.67291,11.21356 7.68126,11.304548 0.008,0.09099 -1.66261,0.165433 -3.71327,0.165433 h -3.72846 l -1.17936,-1.757156 -1.17937,-1.757154 -6.6173,-0.0025 -6.61729,-0.0025 -1.15925,1.759645 -1.15923,1.759643 h -3.65668 c -2.01118,0 -3.6236,-0.08625 -3.58315,-0.191656 z m 17.37443,-11.168036 c -0.62901,-0.909876 -1.20568,-1.651169 -1.28152,-1.647316 -0.15112,0.0077 -2.23337,2.966449 -2.23337,3.173507 0,0.07047 1.04818,0.128142 2.32927,0.128142 h 2.32925 z"
     id="path1423-3"
     inkscape:connector-curvature="0" />
</svg>
