<?xml version="1.0" encoding="UTF-8" standalone="no"?>
<!-- Generator: Adobe Illustrator 21.1.0, SVG Export Plug-In . SVG Version: 6.00 Build 0)  -->

<svg
   xmlns:dc="http://purl.org/dc/elements/1.1/"
   xmlns:cc="http://creativecommons.org/ns#"
   xmlns:rdf="http://www.w3.org/1999/02/22-rdf-syntax-ns#"
   xmlns:svg="http://www.w3.org/2000/svg"
   xmlns="http://www.w3.org/2000/svg"
   xmlns:sodipodi="http://sodipodi.sourceforge.net/DTD/sodipodi-0.dtd"
   xmlns:inkscape="http://www.inkscape.org/namespaces/inkscape"
   version="1.1"
   x="0px"
   y="0px"
   viewBox="0 0 157 100"
   xml:space="preserve"
   id="svg4588"
   sodipodi:docname="lc.svg"
   width="157"
   height="100"
   inkscape:version="0.92.3 (2405546, 2018-03-11)"><metadata
   id="metadata4594"><rdf:RDF><cc:Work
       rdf:about=""><dc:format>image/svg+xml</dc:format><dc:type
         rdf:resource="http://purl.org/dc/dcmitype/StillImage" /><dc:title></dc:title></cc:Work></rdf:RDF></metadata><defs
   id="defs4592" /><sodipodi:namedview
   pagecolor="#ffffff"
   bordercolor="#666666"
   borderopacity="1"
   objecttolerance="10"
   gridtolerance="10"
   guidetolerance="10"
   inkscape:pageopacity="0"
   inkscape:pageshadow="2"
   inkscape:window-width="3840"
   inkscape:window-height="2031"
   id="namedview4590"
   showgrid="false"
   inkscape:zoom="4.9495585"
   inkscape:cx="94.563777"
   inkscape:cy="14.283556"
   inkscape:window-x="0"
   inkscape:window-y="55"
   inkscape:window-maximized="1"
   inkscape:current-layer="svg4588" />

<g
   id="g5164"
   transform="matrix(0.26641542,0,0,0.26641542,-0.79854976,80.491245)"
   style="fill:#4d4d4d"><g
     transform="translate(0,-296.9)"
     id="Layer_2"
     style="fill:#4d4d4d">
	<g
   id="g4552"
   style="fill:#4d4d4d">
		<path
   inkscape:connector-curvature="0"
   id="path4540"
   d="M 102.1,50 C 99.4,50 98,49.2 98,47.7 v -6.1 c 0,-1.5 1.4,-2.3 4.1,-2.3 h 1.2 c 2.7,0 4.1,0.8 4.1,2.3 v 6.1 c 0,1.5 -1.4,2.3 -4.1,2.3 z m -3.7,64.8 V 65 c 0,-1.5 1.4,-2.3 4.1,-2.3 h 0.4 c 2.7,0 4.1,0.8 4.1,2.3 v 49.7 c 0,1.5 -1.4,2.3 -4.1,2.3 h -0.4 c -2.8,0 -4.1,-0.7 -4.1,-2.2 z"
   style="fill:#4d4d4d" />
		<path
   inkscape:connector-curvature="0"
   id="path4542"
   d="M 125,114.8 V 41.6 c 0,-1.5 1.4,-2.3 4.1,-2.3 h 0.4 c 2.7,0 4.1,0.8 4.1,2.3 v 26 c 4.5,-3.5 9.7,-5.3 15.4,-5.3 5.7,0 10.6,2.4 14.4,7.2 3.8,4.8 5.8,11.4 5.8,19.8 v 0.9 c 0,8 -1.8,14.5 -5.4,19.6 -3.6,5.1 -8.4,7.6 -14.5,7.6 -6,0 -11.5,-2.6 -16.5,-7.7 l -1.6,6.1 c -0.3,0.8 -1.3,1.2 -2.8,1.2 H 128 c -1.9,0 -3,-0.7 -3,-2.2 z m 8.7,-12 c 4.3,4.7 8.8,7.1 13.3,7.1 8.9,0 13.3,-6.9 13.3,-20.8 0,-6.1 -1.2,-10.8 -3.5,-14.1 -2.3,-3.3 -5.6,-5 -10,-5 h -0.6 c -4.6,0 -8.8,1.5 -12.5,4.6 z"
   style="fill:#4d4d4d" />
		<path
   inkscape:connector-curvature="0"
   id="path4544"
   d="M 184.2,114.8 V 78.6 c 0,-4.2 -0.2,-7.2 -0.5,-9 -0.5,-2.5 -0.7,-3.8 -0.7,-4 0,-0.8 0.7,-1.4 2,-1.8 1.3,-0.4 2.3,-0.6 3,-0.6 0.7,0 1.2,0.1 1.5,0.2 0.3,0.1 0.5,0.4 0.8,0.7 0.2,0.3 0.4,0.6 0.6,0.9 0.1,0.3 0.3,0.7 0.4,1.2 0.1,0.5 0.3,0.9 0.4,1.2 0.1,0.3 0.2,0.8 0.3,1.3 0.1,0.6 0.2,1 0.3,1.2 3.6,-5.1 7.6,-7.7 11.9,-7.7 1.9,0 3.4,0.4 4.4,1.1 1,0.8 1.5,1.7 1.5,2.9 0,1.2 -0.2,2.4 -0.6,3.7 -0.4,1.3 -0.9,1.9 -1.4,1.9 -0.3,0 -0.9,-0.2 -2,-0.6 -1.1,-0.4 -2.3,-0.6 -3.8,-0.6 -1.5,0 -3,0.5 -4.6,1.6 -1.6,1.1 -2.7,2.1 -3.5,3.1 l -1.2,1.5 v 37.7 c 0,1.5 -1.4,2.3 -4.1,2.3 h -0.4 c -3,0.2 -4.3,-0.5 -4.3,-2 z"
   style="fill:#4d4d4d" />
		<path
   inkscape:connector-curvature="0"
   id="path4546"
   d="m 251.8,83.2 v -4.8 c 0,-5.8 -3.8,-8.7 -11.3,-8.7 -4.9,0 -9.5,1.1 -13.7,3.2 -1.4,0.8 -2.2,1.1 -2.4,1.1 -0.7,0 -1.5,-0.7 -2.3,-2.1 -0.9,-1.4 -1.3,-2.4 -1.3,-3.1 0,-1.4 2,-2.9 6,-4.4 4,-1.5 8.8,-2.2 14.5,-2.2 5.6,0 10.2,1.4 13.8,4.3 3.6,2.9 5.4,6.8 5.4,11.9 v 23.1 c 0,4.1 0.2,7.1 0.5,9 0.5,2.5 0.7,3.9 0.7,4 0,0.8 -0.7,1.4 -2,1.8 -1.3,0.4 -2.3,0.6 -3,0.6 -0.7,0 -1.2,-0.1 -1.5,-0.2 -0.3,-0.1 -0.5,-0.4 -0.8,-0.7 -0.2,-0.3 -0.4,-0.7 -0.6,-1 -0.1,-0.3 -0.3,-0.7 -0.4,-1.3 -0.1,-0.5 -0.3,-1 -0.4,-1.3 -0.1,-0.3 -0.2,-0.8 -0.3,-1.4 -0.1,-0.7 -0.2,-1.1 -0.3,-1.3 -4.7,5.1 -10.4,7.7 -17.3,7.7 -5.3,0 -9.5,-1.3 -12.8,-3.9 -3.2,-2.6 -4.8,-6.6 -4.8,-12.1 0,-5.4 1.9,-9.5 5.6,-12.2 3.7,-2.7 7.9,-4.4 12.6,-4.9 4.8,-0.6 10.2,-0.9 16.1,-1.1 z m -24.9,18.3 c 0,5.6 2.9,8.4 8.8,8.4 3.4,0 6.3,-0.6 8.7,-1.9 2.4,-1.2 4.9,-3 7.5,-5.3 v -12 c -8.6,0 -14.1,0.5 -16.6,1.4 -1.3,0.5 -2.7,1.1 -4.1,1.9 -2.9,1.4 -4.3,3.9 -4.3,7.5 z"
   style="fill:#4d4d4d" />
		<path
   inkscape:connector-curvature="0"
   id="path4548"
   d="M 278,114.8 V 78.6 c 0,-4.2 -0.2,-7.2 -0.5,-9 -0.5,-2.5 -0.7,-3.8 -0.7,-4 0,-0.8 0.7,-1.4 2,-1.8 1.3,-0.4 2.3,-0.6 3,-0.6 0.7,0 1.2,0.1 1.5,0.2 0.3,0.1 0.5,0.4 0.8,0.7 0.2,0.3 0.4,0.6 0.6,0.9 0.1,0.3 0.3,0.7 0.4,1.2 0.1,0.5 0.3,0.9 0.4,1.2 0.1,0.3 0.2,0.8 0.3,1.3 0.1,0.6 0.2,1 0.3,1.2 3.6,-5.1 7.6,-7.7 11.9,-7.7 1.9,0 3.4,0.4 4.4,1.1 1,0.8 1.5,1.7 1.5,2.9 0,1.2 -0.2,2.4 -0.6,3.7 -0.4,1.3 -0.9,1.9 -1.4,1.9 -0.3,0 -0.9,-0.2 -2,-0.6 -1.1,-0.4 -2.3,-0.6 -3.8,-0.6 -1.5,0 -3,0.5 -4.6,1.6 -1.6,1.1 -2.7,2.1 -3.5,3.1 l -1.2,1.5 v 37.7 c 0,1.5 -1.4,2.3 -4.1,2.3 h -0.4 c -2.9,0.2 -4.3,-0.5 -4.3,-2 z"
   style="fill:#4d4d4d" />
		<path
   inkscape:connector-curvature="0"
   id="path4550"
   d="m 308.3,64.5 c 0,-1.2 1.5,-1.8 4.4,-1.8 h 0.8 c 2.3,0 3.6,0.6 4.1,1.6 l 14,37.2 13.7,-37.2 c 0.3,-1.1 1.9,-1.6 4.6,-1.6 2.7,0 4.1,0.6 4.1,1.8 0,0.3 -0.1,0.8 -0.3,1.4 L 327.2,136 c -0.5,1.4 -2.2,2.2 -4.8,2.2 h -1.5 c -2.3,0 -3.4,-0.6 -3.4,-1.6 0,-0.2 3.1,-7.8 9.2,-22.7 l -18,-48.1 c -0.3,-0.6 -0.4,-1 -0.4,-1.3 z"
   style="fill:#4d4d4d" />
	</g>
	<g
   id="g4570"
   style="fill:#4d4d4d">
		<path
   inkscape:connector-curvature="0"
   id="path4554"
   d="m 241.2,214.2 v -4.8 c 0,-5.8 -3.8,-8.7 -11.3,-8.7 -4.9,0 -9.5,1.1 -13.7,3.2 -1.4,0.8 -2.2,1.1 -2.4,1.1 -0.7,0 -1.5,-0.7 -2.3,-2.1 -0.9,-1.4 -1.3,-2.4 -1.3,-3.1 0,-1.4 2,-2.9 6,-4.4 4,-1.5 8.8,-2.2 14.5,-2.2 5.6,0 10.2,1.4 13.8,4.3 3.6,2.9 5.4,6.8 5.4,11.9 v 23.1 c 0,4.1 0.2,7.1 0.5,9 0.5,2.5 0.7,3.9 0.7,4 0,0.8 -0.7,1.4 -2,1.8 -1.3,0.4 -2.3,0.6 -3,0.6 -0.7,0 -1.2,-0.1 -1.5,-0.2 -0.3,-0.1 -0.5,-0.4 -0.8,-0.7 -0.2,-0.3 -0.4,-0.7 -0.6,-1 -0.1,-0.3 -0.3,-0.7 -0.4,-1.3 -0.1,-0.5 -0.3,-1 -0.4,-1.3 -0.1,-0.3 -0.2,-0.8 -0.3,-1.4 -0.1,-0.7 -0.2,-1.1 -0.3,-1.3 -4.7,5.2 -10.4,7.7 -17.3,7.7 -5.3,0 -9.5,-1.3 -12.8,-3.9 -3.2,-2.6 -4.8,-6.6 -4.8,-12.1 0,-5.4 1.9,-9.5 5.6,-12.2 3.7,-2.7 7.9,-4.4 12.6,-4.9 4.8,-0.6 10.2,-0.9 16.1,-1.1 z m -24.9,18.3 c 0,5.6 2.9,8.4 8.8,8.4 3.4,0 6.3,-0.6 8.7,-1.9 2.4,-1.2 4.9,-3 7.5,-5.3 v -12.2 c -8.6,0 -14.1,0.5 -16.6,1.4 -1.3,0.5 -2.7,1.1 -4.1,1.9 -2.9,1.6 -4.3,4.1 -4.3,7.7 z"
   style="fill:#4d4d4d" />
		<path
   inkscape:connector-curvature="0"
   id="path4556"
   d="m 267.4,245.8 v -36.2 c 0,-4.2 -0.2,-7.2 -0.5,-9 -0.5,-2.5 -0.7,-3.8 -0.7,-4 0,-0.8 0.7,-1.4 2,-1.8 1.3,-0.4 2.3,-0.6 3,-0.6 0.7,0 1.2,0.1 1.5,0.2 0.3,0.1 0.5,0.4 0.8,0.7 0.2,0.3 0.4,0.6 0.6,0.9 0.1,0.3 0.3,0.7 0.4,1.2 0.1,0.5 0.3,0.9 0.4,1.2 0.1,0.3 0.2,0.8 0.3,1.3 0.1,0.6 0.2,1 0.3,1.2 3.6,-5.2 7.6,-7.7 11.9,-7.7 1.9,0 3.4,0.4 4.4,1.1 1,0.8 1.5,1.7 1.5,2.9 0,1.2 -0.2,2.4 -0.6,3.7 -0.4,1.3 -0.9,1.9 -1.4,1.9 -0.3,0 -0.9,-0.2 -2,-0.6 -1.1,-0.4 -2.3,-0.6 -3.8,-0.6 -1.5,0 -3,0.5 -4.6,1.6 -1.6,1.1 -2.7,2.1 -3.5,3.1 l -1.2,1.5 v 37.7 c 0,1.5 -1.4,2.3 -4.1,2.3 h -0.4 c -2.9,0.2 -4.3,-0.5 -4.3,-2 z"
   style="fill:#4d4d4d" />
		<path
   inkscape:connector-curvature="0"
   id="path4558"
   d="m 313.3,267 c 0,1.5 -1.4,2.3 -4.1,2.3 h -0.4 c -2.7,0 -4.1,-0.8 -4.1,-2.3 v -57.4 c 0,-4.2 -0.2,-7.2 -0.5,-9 -0.5,-2.5 -0.7,-3.8 -0.7,-4 0,-0.8 0.7,-1.4 2,-1.8 1.3,-0.4 2.3,-0.6 3,-0.6 0.7,0 1.2,0.1 1.5,0.2 0.3,0.1 0.5,0.4 0.8,0.7 0.2,0.3 0.4,0.6 0.6,0.9 0.1,0.3 0.3,0.7 0.4,1.2 0.1,0.5 0.3,0.9 0.4,1.2 0.1,0.3 0.2,0.8 0.3,1.3 0.1,0.6 0.2,1 0.3,1.2 4.9,-5.2 10.4,-7.7 16.5,-7.7 6,0 10.9,2.5 14.5,7.6 3.6,5.1 5.4,11.6 5.4,19.6 v 0.9 c 0,8.4 -1.9,15.1 -5.8,19.8 -3.8,4.8 -8.7,7.2 -14.4,7.2 -5.7,0 -10.9,-1.8 -15.5,-5.3 v 24 z m 12.5,-26.2 h 0.6 c 4.4,-0.1 7.7,-1.8 10,-5 2.3,-3.3 3.4,-8.1 3.4,-14.5 0,-6.4 -1.1,-11.4 -3.3,-15 -2.2,-3.6 -5.5,-5.4 -10,-5.4 -4.5,0 -8.9,2.4 -13.2,7.1 v 28.2 c 3.8,3.1 7.9,4.6 12.5,4.6 z"
   style="fill:#4d4d4d" />
		<path
   inkscape:connector-curvature="0"
   id="path4560"
   d="m 366.7,241.7 c -4.1,-4.5 -6.2,-11.3 -6.2,-20.4 0,-9.1 2,-16.1 6.1,-20.9 4.1,-4.7 9.8,-7.1 17.3,-7.1 14.6,0 21.8,9 21.8,26.9 0,0.6 -0.4,1.5 -1.2,2.6 -0.8,1.1 -1.5,1.6 -2.2,1.6 h -32.5 c 0.4,5.7 1.9,9.9 4.4,12.6 2.5,2.7 6.4,4 11.4,4 4.7,0 9,-1.1 12.9,-3.3 1.3,-0.7 2,-1 2.2,-1 0.7,0 1.5,0.7 2.3,2.1 0.9,1.4 1.3,2.4 1.3,3.1 0,1.4 -1.9,2.8 -5.6,4.3 -3.7,1.5 -8.1,2.3 -12.9,2.3 -8.6,-0.1 -15,-2.3 -19.1,-6.8 z M 396.6,217 c 0,-10.8 -4.1,-16.3 -12.4,-16.3 -8.9,0 -13.7,5.4 -14.4,16.3 z"
   style="fill:#4d4d4d" />
		<path
   inkscape:connector-curvature="0"
   id="path4562"
   d="m 419.2,245.8 v -36.2 c 0,-4.2 -0.2,-7.2 -0.5,-9 -0.5,-2.5 -0.7,-3.8 -0.7,-4 0,-0.8 0.7,-1.4 2,-1.8 1.3,-0.4 2.3,-0.6 3,-0.6 0.7,0 1.2,0.1 1.5,0.2 0.3,0.1 0.5,0.4 0.8,0.7 0.2,0.3 0.4,0.6 0.6,0.9 0.1,0.3 0.3,0.7 0.4,1.2 0.1,0.5 0.3,0.9 0.4,1.2 0.1,0.3 0.2,0.8 0.3,1.3 0.1,0.6 0.2,1 0.3,1.2 4.6,-5.2 9.7,-7.7 15.4,-7.7 5.7,0 10,1.5 13,4.4 3,3 4.5,7 4.5,12.3 v 35.7 c 0,1.5 -1.4,2.3 -4.1,2.3 h -0.4 c -2.7,0 -4.1,-0.8 -4.1,-2.3 v -34.9 c 0,-3.2 -0.9,-5.6 -2.7,-7.4 -1.8,-1.8 -4.4,-2.6 -7.8,-2.6 -4.9,0 -9.3,2.4 -13,7.2 v 37.7 c 0,1.5 -1.4,2.3 -4.1,2.3 h -0.4 c -3,0.1 -4.4,-0.6 -4.4,-2.1 z"
   style="fill:#4d4d4d" />
		<path
   inkscape:connector-curvature="0"
   id="path4564"
   d="m 478.8,234.2 v -32.9 h -5.2 c -1.4,0 -2.1,-1 -2.1,-3.1 V 197 c 0,-2.1 0.7,-3.1 2.1,-3.1 h 5.2 l 1.2,-10.8 c 0.1,-1.5 1.2,-2.3 3.3,-2.3 h 1 c 2.1,0 3.1,0.8 3.1,2.3 V 194 h 8.7 c 1.4,0 2.1,1 2.1,3.1 v 1.2 c 0,2.1 -0.7,3.1 -2.1,3.1 h -8.7 v 32 c 0,5.1 1.9,7.6 5.6,7.6 1.2,0 2.2,-0.1 3,-0.3 0.8,-0.2 1.3,-0.3 1.4,-0.3 0.6,0 1.1,0.6 1.5,1.9 0.4,1.3 0.6,2.2 0.6,2.9 0,2.1 -2.5,3.1 -7.5,3.1 -3.4,0 -6.5,-1 -9.2,-3.1 -2.7,-2 -4,-5.7 -4,-11 z"
   style="fill:#4d4d4d" />
		<path
   inkscape:connector-curvature="0"
   id="path4566"
   d="m 512.2,245.8 v -36.2 c 0,-4.2 -0.2,-7.2 -0.5,-9 -0.5,-2.5 -0.7,-3.8 -0.7,-4 0,-0.8 0.7,-1.4 2,-1.8 1.3,-0.4 2.3,-0.6 3,-0.6 0.7,0 1.2,0.1 1.5,0.2 0.3,0.1 0.5,0.4 0.8,0.7 0.2,0.3 0.4,0.6 0.6,0.9 0.1,0.3 0.3,0.7 0.4,1.2 0.1,0.5 0.3,0.9 0.4,1.2 0.1,0.3 0.2,0.8 0.3,1.3 0.1,0.6 0.2,1 0.3,1.2 3.6,-5.2 7.6,-7.7 11.9,-7.7 1.9,0 3.4,0.4 4.4,1.1 1,0.8 1.5,1.7 1.5,2.9 0,1.2 -0.2,2.4 -0.6,3.7 -0.4,1.3 -0.9,1.9 -1.4,1.9 -0.3,0 -0.9,-0.2 -2,-0.6 -1.1,-0.4 -2.3,-0.6 -3.8,-0.6 -1.5,0 -3,0.5 -4.6,1.6 -1.6,1.1 -2.7,2.1 -3.5,3.1 l -1.2,1.5 v 37.7 c 0,1.5 -1.4,2.3 -4.1,2.3 h -0.4 c -2.9,0.2 -4.3,-0.5 -4.3,-2 z"
   style="fill:#4d4d4d" />
		<path
   inkscape:connector-curvature="0"
   id="path4568"
   d="m 542.5,195.5 c 0,-1.2 1.5,-1.8 4.4,-1.8 h 0.8 c 2.3,0 3.6,0.6 4.1,1.6 l 14,37.2 13.7,-37.2 c 0.3,-1.1 1.9,-1.6 4.6,-1.6 2.7,0 4.1,0.6 4.1,1.8 0,0.3 -0.1,0.8 -0.3,1.4 L 561.4,267 c -0.5,1.4 -2.2,2.2 -4.8,2.2 h -1.5 c -2.3,0 -3.4,-0.6 -3.4,-1.6 0,-0.2 3.1,-7.8 9.2,-22.7 l -18,-48.1 c -0.3,-0.6 -0.4,-1 -0.4,-1.3 z"
   style="fill:#4d4d4d" />
	</g>
</g><g
     transform="translate(0,-296.9)"
     id="Layer_3"
     style="fill:#4d4d4d">
	<path
   inkscape:connector-curvature="0"
   id="path4573"
   d="m 70,19.8 v -8 H 42 v 212 h 28 v -57 h -7 v -4 h 7 v -16 H 58 v -4 h 12 v -17 h -7 v -4 h 7 v -17 H 58 v -4 h 12 v -16 h -7 v -4 h 7 v -16 H 58 v -4 h 12 v -37 H 58 v -4 z M 60,200.3 c 0,2.5 -2,4.5 -4.5,4.5 -2.5,0 -4.5,-2 -4.5,-4.5 0,-2.5 2,-4.5 4.5,-4.5 2.5,0 4.5,2 4.5,4.5 z M 63,39.8 h 6 v 5 h -6 z"
   style="fill:#4d4d4d" />
	<path
   inkscape:connector-curvature="0"
   id="path4575"
   d="m 7.1,188.5 h 33 v 20.8 c 0,0 -6.2,1.8 -14,0 -15.2,-4.4 -19,-20.8 -19,-20.8 z"
   style="fill:#4d4d4d" />
	<path
   inkscape:connector-curvature="0"
   id="path4577"
   d="m 71.9,188.5 h 38.3 v 28.2 C 93,229 71.9,212 71.9,212 Z"
   style="fill:#4d4d4d" />
	<path
   inkscape:connector-curvature="0"
   id="path4579"
   d="m 196.6,311.3 c 0,1 0.8,1.7 1.7,1.7 h 16.4 c 1,0 1.7,-0.8 1.7,-1.7 v -1.7 h 0.8 v -25.3 h -0.8 v -1.8 c 0,-1 -0.8,-1.7 -1.7,-1.7 h -16.4 c -1,0 -1.7,0.8 -1.7,1.7 v 1.8 h -0.1 -38 l -19.3,-18.4 v -88.3 l 20.2,-19.1 h 31.1 v 2.9 h -2.3 c -1.2,0 -2.2,1 -2.2,2.2 v 4.6 c 0,1.2 1,2.2 2.2,2.2 h 30.7 c 1.2,0 2.2,-1 2.2,-2.2 v -4.6 c 0,-1.2 -1,-2.2 -2.2,-2.2 h -2.3 v -2.9 h 0.8 v -25.1 h -69 L 112,167.7 v 108.2 l 35,33.6 h 49.5 v 1.8 z"
   style="fill:#4d4d4d" />
	<path
   inkscape:connector-curvature="0"
   id="path4581"
   d="m 240.4,336.5 h -15.2 c -1,0 -1.9,0.8 -1.9,1.9 v 0.7 h -9.2 v -4.6 c 0,-0.8 -0.7,-1.5 -1.5,-1.5 h -1.7 v -17.9 h -8.8 V 333 h -1.7 c -0.8,0 -1.5,0.7 -1.5,1.5 v 4.6 h -32 v -1.4 c 0,-0.7 -0.5,-1.2 -1.2,-1.2 h -2 -0.3 -5.4 v 13 h 5.5 0.3 2 c 0.7,0 1.2,-0.5 1.2,-1.2 v -1.8 h 32 v 5.1 c 0,0.8 0.7,1.5 1.5,1.5 h 12.3 c 0.8,0 1.5,-0.7 1.5,-1.5 v -5.1 h 9.2 v 1.1 c 0,1 0.8,1.9 1.9,1.9 h 15.2 c 1,0 1.9,-0.8 1.9,-1.9 v -9.2 c -0.3,-1.1 -1.1,-1.9 -2.1,-1.9 z"
   style="fill:#4d4d4d" />
	<path
   inkscape:connector-curvature="0"
   id="path4583"
   d="m 211.3,278.4 v -18.5 h 3.4 c 1,0 1.7,-0.8 1.7,-1.7 v -1.2 -1.1 -5.7 h -19.9 v 5.7 1.1 1.1 c 0,1 0.8,1.7 1.7,1.7 h 4.2 v 18.5 h 8.9 z"
   style="fill:#4d4d4d" />
	<path
   inkscape:connector-curvature="0"
   id="path4585"
   d="m 141.1,210.5 c 0,0 23.5,0 26.5,-1.2 14.9,-7.4 15.8,-20.8 15.8,-20.8 h -42.2 v 22 z"
   style="fill:#4d4d4d" />
</g></g>
</svg>