<svg id="svg" version="1.1" xmlns="http://www.w3.org/2000/svg" xmlns:xlink="http://www.w3.org/1999/xlink" width="400" height="81.86423505572441" viewBox="0, 0, 400,81.86423505572441"><g id="svgg"><path id="path0" d="M332.667 5.474 L 332.667 8.615 330.640 8.724 C 329.526 8.784,328.186 8.833,327.662 8.833 L 326.710 8.833 326.625 8.075 C 326.578 7.658,326.510 7.288,326.475 7.253 C 326.357 7.134,316.545 7.119,316.354 7.237 C 316.251 7.301,316.167 7.646,316.167 8.004 L 316.167 8.655 314.542 8.702 L 312.917 8.750 312.917 11.250 L 312.917 13.750 319.220 13.794 C 325.104 13.834,325.520 13.857,325.468 14.127 C 325.417 14.394,324.927 14.423,319.164 14.500 L 312.917 14.583 312.871 17.666 C 312.830 20.418,312.856 20.771,313.111 20.958 C 313.336 21.122,317.302 21.167,331.754 21.167 L 350.110 21.167 350.312 20.790 C 350.668 20.124,350.499 9.292,350.125 8.879 C 349.965 8.702,349.833 8.473,349.833 8.370 C 349.833 8.267,349.618 7.861,349.354 7.467 C 349.091 7.073,348.823 6.581,348.760 6.375 C 348.696 6.169,348.570 6.000,348.479 6.000 C 348.388 6.000,348.360 5.925,348.417 5.833 C 348.473 5.742,348.455 5.667,348.376 5.667 C 348.298 5.667,348.069 5.348,347.867 4.958 C 347.481 4.210,347.335 3.962,346.690 2.958 L 346.288 2.333 339.477 2.333 L 332.667 2.333 332.667 5.474 M344.679 6.208 C 345.079 6.781,345.467 7.325,345.540 7.417 C 345.613 7.508,345.975 8.042,346.343 8.602 L 347.013 9.620 346.965 11.185 L 346.917 12.750 341.417 12.750 L 335.917 12.750 335.872 9.171 C 335.847 7.202,335.863 5.496,335.908 5.379 C 335.971 5.215,336.898 5.167,339.971 5.167 L 343.952 5.167 344.679 6.208 M351.839 11.822 C 351.576 12.315,351.608 20.524,351.875 20.883 C 352.056 21.126,352.520 21.169,355.399 21.206 C 358.515 21.247,358.725 21.270,358.899 21.583 C 359.000 21.766,359.354 22.253,359.686 22.666 C 360.237 23.352,362.213 25.998,363.542 27.828 C 363.840 28.237,364.196 28.698,364.333 28.852 C 364.471 29.006,364.757 29.346,364.970 29.608 C 365.321 30.039,365.610 30.426,366.802 32.056 C 367.014 32.346,367.371 32.790,367.595 33.042 L 368.003 33.500 370.501 33.500 C 373.008 33.500,373.326 33.582,372.620 34.044 C 372.410 34.181,371.904 34.597,371.495 34.967 L 370.750 35.641 370.696 37.968 L 370.642 40.295 371.162 41.189 C 371.946 42.539,372.040 42.688,372.618 43.513 C 372.913 43.933,373.229 44.477,373.323 44.722 C 373.416 44.966,373.569 45.167,373.663 45.167 C 373.756 45.167,373.833 45.250,373.833 45.351 C 373.833 45.452,374.058 45.868,374.333 46.276 C 374.608 46.683,374.833 47.069,374.833 47.134 C 374.833 47.198,375.088 47.610,375.400 48.048 C 375.712 48.487,376.013 49.030,376.070 49.256 C 376.127 49.482,376.241 49.667,376.324 49.667 C 376.462 49.667,377.022 50.536,377.932 52.163 C 378.124 52.506,378.619 53.304,379.032 53.935 C 380.652 56.410,381.000 56.980,381.000 57.153 C 381.000 57.252,381.060 57.333,381.133 57.333 C 381.207 57.333,381.435 57.652,381.641 58.042 C 382.275 59.245,382.897 60.256,383.375 60.865 C 383.627 61.186,383.833 61.535,383.833 61.641 C 383.833 61.747,383.908 61.833,384.000 61.833 C 384.092 61.833,384.167 61.937,384.167 62.065 C 384.167 62.192,384.429 62.678,384.750 63.144 C 385.071 63.610,385.333 64.052,385.333 64.125 C 385.333 64.198,385.565 64.539,385.849 64.883 L 386.365 65.509 388.807 65.463 C 391.603 65.410,391.798 65.279,390.941 64.028 C 390.711 63.692,390.428 63.192,390.312 62.917 C 390.197 62.642,390.014 62.304,389.907 62.167 C 389.724 61.933,388.502 59.711,388.098 58.876 C 387.998 58.671,387.860 58.502,387.792 58.501 C 387.723 58.501,387.667 58.411,387.667 58.303 C 387.667 58.069,386.991 56.621,386.826 56.500 C 386.721 56.423,386.402 55.872,385.718 54.583 C 385.573 54.308,385.353 53.896,385.231 53.667 C 385.108 53.438,384.859 52.931,384.677 52.542 C 384.494 52.152,384.276 51.833,384.192 51.833 C 384.108 51.833,383.871 51.421,383.667 50.917 C 383.462 50.413,383.228 50.000,383.147 50.000 C 383.066 50.000,383.000 49.891,383.000 49.757 C 383.000 49.624,382.775 49.133,382.500 48.667 C 382.225 48.200,382.000 47.753,382.000 47.673 C 382.000 47.593,381.934 47.503,381.853 47.472 C 381.773 47.442,381.375 46.779,380.969 46.000 C 380.563 45.221,379.992 44.152,379.699 43.625 C 379.406 43.098,378.952 42.273,378.689 41.792 C 378.426 41.310,378.056 40.654,377.867 40.333 C 377.677 40.012,377.294 39.300,377.015 38.750 C 376.736 38.200,376.284 37.375,376.011 36.917 C 375.738 36.458,375.230 35.506,374.882 34.801 C 374.535 34.096,374.141 33.496,374.009 33.467 C 373.876 33.439,373.756 33.228,373.743 32.999 C 373.730 32.771,373.566 32.283,373.379 31.917 C 372.365 29.925,372.129 29.510,371.909 29.327 C 371.776 29.216,371.667 29.055,371.667 28.968 C 371.667 28.881,371.457 28.497,371.201 28.113 C 370.945 27.730,370.643 27.229,370.529 27.000 C 370.415 26.771,370.025 26.133,369.661 25.583 C 369.298 25.033,368.920 24.396,368.822 24.167 C 368.724 23.939,368.461 23.512,368.239 23.220 C 368.016 22.928,367.833 22.627,367.833 22.551 C 367.833 22.474,367.571 22.022,367.250 21.546 C 366.929 21.070,366.667 20.608,366.667 20.521 C 366.667 20.358,365.810 18.980,365.140 18.066 C 364.931 17.781,364.421 17.384,364.005 17.184 C 363.590 16.984,362.650 16.513,361.917 16.138 C 361.183 15.764,360.396 15.383,360.167 15.292 C 359.938 15.202,359.637 15.064,359.500 14.986 C 359.363 14.908,358.537 14.501,357.667 14.082 C 356.796 13.663,355.971 13.249,355.833 13.162 C 355.696 13.076,355.321 12.885,355.000 12.738 C 354.142 12.345,353.815 12.183,353.167 11.832 C 352.415 11.425,352.053 11.422,351.839 11.822 M308.167 24.000 C 308.167 24.092,308.067 24.167,307.946 24.167 C 307.542 24.167,305.707 25.141,305.248 25.600 C 303.251 27.598,303.434 31.829,305.583 33.354 C 305.950 33.615,306.334 33.898,306.437 33.984 C 306.541 34.070,306.953 34.237,307.354 34.354 C 307.755 34.471,308.143 34.663,308.215 34.781 C 308.474 35.202,353.915 35.091,354.453 34.668 C 354.687 34.484,354.993 34.333,355.133 34.333 C 355.481 34.333,356.982 33.365,357.540 32.780 C 358.462 31.814,358.811 28.972,358.221 27.240 C 357.954 26.456,356.406 24.667,355.995 24.667 C 355.905 24.667,355.443 24.479,354.968 24.250 L 354.104 23.833 331.135 23.833 C 315.934 23.833,308.167 23.890,308.167 24.000 M332.955 27.866 C 334.144 28.581,334.072 30.151,332.821 30.799 C 332.415 31.009,332.218 31.141,332.384 31.092 C 332.557 31.041,332.641 31.073,332.582 31.169 C 332.346 31.551,330.500 31.257,330.500 30.836 C 330.500 30.752,330.313 30.482,330.083 30.234 C 328.668 28.707,331.065 26.731,332.955 27.866 M341.936 27.667 C 342.963 27.667,343.706 29.172,343.159 30.145 C 342.242 31.777,340.031 31.427,339.567 29.577 C 339.373 28.805,341.370 26.826,341.639 27.523 C 341.669 27.602,341.803 27.667,341.936 27.667 M313.266 27.920 C 314.144 28.475,314.183 29.936,313.342 30.742 C 312.373 31.670,310.817 31.248,310.378 29.938 C 309.816 28.261,311.710 26.937,313.266 27.920 M323.099 27.654 C 323.561 27.686,324.333 28.741,324.333 29.339 C 324.333 31.482,320.991 31.866,320.598 29.769 C 320.374 28.575,321.430 27.417,322.583 27.592 C 322.767 27.619,322.999 27.647,323.099 27.654 M351.905 27.756 C 352.773 28.168,353.220 29.165,352.863 29.896 C 352.005 31.657,350.404 31.649,349.310 29.878 L 348.973 29.334 349.445 28.586 C 350.082 27.574,350.924 27.290,351.905 27.756 M387.444 67.278 C 387.383 67.339,387.333 67.620,387.333 67.903 C 387.333 69.468,386.390 72.315,385.612 73.103 C 385.413 73.304,385.162 73.569,385.054 73.693 C 384.619 74.192,384.025 74.667,383.836 74.667 C 383.725 74.667,383.403 74.832,383.119 75.034 C 382.836 75.236,381.887 75.593,381.012 75.828 C 378.813 76.418,378.730 76.996,380.762 77.584 C 381.305 77.741,381.884 77.939,382.048 78.024 C 382.213 78.109,382.410 78.139,382.487 78.092 C 382.563 78.044,382.856 78.120,383.138 78.260 C 383.820 78.601,387.288 78.776,388.442 78.528 C 389.828 78.231,391.786 76.672,391.550 76.056 C 391.503 75.933,391.542 75.833,391.637 75.833 C 392.532 75.833,392.192 67.891,391.272 67.294 C 391.036 67.141,387.596 67.126,387.444 67.278 " stroke="none" fill="#04145c" fill-rule="evenodd"></path><path id="path1" d="M1.227 22.195 C 0.332 22.628,0.394 21.338,0.479 37.750 C 0.502 42.150,0.439 49.387,0.340 53.833 C 0.241 58.279,0.112 65.570,0.055 70.035 L -0.050 78.153 0.483 78.651 C 1.225 79.344,5.935 79.636,6.327 79.013 C 6.376 78.935,6.743 78.773,7.141 78.654 C 8.299 78.308,8.245 78.945,8.298 65.042 L 8.345 52.500 10.006 52.500 C 11.002 52.500,11.667 52.567,11.667 52.667 C 11.667 52.775,13.870 52.833,17.942 52.833 L 24.218 52.833 24.108 56.708 C 23.918 63.440,23.777 77.586,23.895 78.058 C 23.963 78.327,24.194 78.593,24.463 78.711 C 24.712 78.820,24.970 78.986,25.036 79.080 C 25.240 79.371,29.953 79.260,30.297 78.956 C 30.455 78.817,30.832 78.651,31.136 78.586 C 31.440 78.521,31.735 78.344,31.791 78.193 C 31.847 78.041,31.955 77.874,32.032 77.822 C 32.109 77.770,32.213 68.282,32.263 56.739 C 32.313 45.195,32.420 32.978,32.502 29.591 C 32.699 21.386,33.020 21.947,28.180 22.031 C 24.863 22.088,24.514 22.208,24.504 23.292 C 24.502 23.498,24.425 23.667,24.333 23.667 C 24.120 23.667,24.105 30.283,24.318 30.361 C 24.470 30.417,24.554 35.093,24.519 41.564 L 24.500 45.044 20.875 44.908 C 18.881 44.833,15.244 44.766,12.792 44.761 L 8.333 44.750 8.333 37.075 C 8.333 32.854,8.399 29.329,8.480 29.242 C 8.561 29.155,8.678 27.764,8.741 26.151 L 8.855 23.218 8.264 22.609 L 7.673 22.000 4.628 22.011 C 2.897 22.018,1.430 22.097,1.227 22.195 M48.458 22.293 C 42.827 22.319,39.000 22.398,39.000 22.490 C 39.000 22.574,38.831 22.667,38.625 22.697 L 38.250 22.750 38.134 27.333 C 38.070 29.854,37.943 40.122,37.851 50.150 C 37.738 62.445,37.626 68.440,37.508 68.558 C 37.394 68.673,37.333 70.431,37.333 73.625 L 37.333 78.516 37.774 78.925 C 38.329 79.439,44.833 79.585,44.833 79.083 C 44.833 78.946,44.903 78.833,44.988 78.833 C 45.379 78.833,45.833 73.946,45.833 69.737 C 45.833 68.357,45.897 67.500,46.000 67.500 C 46.107 67.500,46.172 65.726,46.182 62.542 C 46.200 56.833,46.322 54.610,46.634 54.300 C 46.802 54.133,47.999 54.079,51.884 54.065 C 56.841 54.046,58.833 53.925,58.833 53.643 C 58.833 53.565,59.230 53.500,59.714 53.500 C 60.507 53.500,62.457 52.967,62.667 52.692 C 62.712 52.632,62.997 52.446,63.298 52.278 C 63.985 51.896,67.500 48.368,67.500 48.060 C 67.500 47.935,67.650 47.665,67.833 47.458 C 68.017 47.252,68.281 46.950,68.421 46.788 C 68.815 46.329,69.333 44.884,69.333 44.244 C 69.333 43.926,69.400 43.667,69.481 43.667 C 69.562 43.667,69.671 43.460,69.723 43.208 C 69.775 42.956,69.941 42.225,70.092 41.583 C 70.604 39.408,70.131 31.997,69.444 31.438 C 69.317 31.335,69.071 30.894,68.898 30.459 C 68.725 30.024,68.528 29.668,68.461 29.667 C 68.393 29.667,68.221 29.388,68.079 29.048 C 67.937 28.707,67.763 28.388,67.693 28.339 C 67.623 28.290,67.390 27.962,67.176 27.609 C 66.588 26.642,65.912 26.005,65.000 25.557 C 64.862 25.490,64.613 25.262,64.446 25.051 C 64.279 24.839,63.998 24.667,63.821 24.667 C 63.645 24.667,63.500 24.599,63.500 24.517 C 63.500 24.434,63.116 24.229,62.646 24.060 C 62.176 23.891,61.758 23.665,61.718 23.559 C 61.677 23.452,61.180 23.194,60.613 22.985 C 60.047 22.776,59.546 22.554,59.500 22.493 C 59.339 22.278,57.835 22.250,48.458 22.293 M90.417 22.275 C 89.408 22.308,88.433 22.406,88.250 22.492 C 88.067 22.578,87.504 22.818,87.000 23.024 C 86.496 23.230,86.046 23.449,86.000 23.510 C 85.954 23.570,85.654 23.753,85.333 23.916 C 85.012 24.079,84.477 24.427,84.143 24.690 C 83.809 24.952,83.470 25.167,83.391 25.167 C 83.312 25.167,83.153 25.317,83.039 25.500 C 82.924 25.683,82.745 25.833,82.642 25.833 C 82.538 25.833,82.219 26.055,81.935 26.327 C 81.650 26.599,80.873 27.327,80.208 27.946 C 79.544 28.564,79.000 29.167,79.000 29.285 C 79.000 29.403,78.921 29.500,78.825 29.500 C 78.728 29.500,78.533 29.780,78.390 30.122 C 78.247 30.464,77.988 30.924,77.815 31.144 C 77.643 31.364,77.420 31.845,77.321 32.214 C 77.221 32.582,77.051 32.972,76.943 33.081 C 76.834 33.190,76.602 33.835,76.428 34.514 C 76.254 35.194,76.057 35.787,75.992 35.833 C 75.829 35.948,75.333 38.405,75.333 39.101 C 75.333 39.412,75.258 39.667,75.167 39.667 C 75.075 39.667,74.999 39.835,74.998 40.042 C 74.997 40.248,74.881 40.792,74.739 41.250 C 74.567 41.805,74.451 43.084,74.391 45.083 C 74.338 46.816,74.229 48.127,74.132 48.188 C 73.894 48.336,73.858 56.638,74.095 56.797 C 74.328 56.954,74.645 58.800,74.824 61.046 C 74.902 62.034,75.049 62.941,75.149 63.062 C 75.249 63.182,75.452 63.818,75.600 64.474 C 75.748 65.130,75.936 65.667,76.018 65.667 C 76.100 65.667,76.167 65.819,76.167 66.004 C 76.167 66.418,76.778 68.192,76.965 68.322 C 77.040 68.374,77.275 68.829,77.488 69.333 C 77.701 69.837,77.929 70.287,77.995 70.333 C 78.060 70.379,78.248 70.773,78.413 71.208 C 78.577 71.644,78.768 72.000,78.836 72.000 C 78.904 72.000,79.126 72.446,79.330 72.992 C 79.534 73.537,79.750 74.006,79.809 74.034 C 79.868 74.061,80.039 74.308,80.188 74.583 C 80.337 74.858,80.756 75.238,81.120 75.428 C 81.484 75.618,82.192 76.190,82.694 76.700 C 83.411 77.429,83.755 77.652,84.303 77.745 C 84.686 77.810,85.000 77.916,85.000 77.982 C 85.000 78.047,85.544 78.275,86.208 78.489 C 86.873 78.702,87.470 78.960,87.535 79.063 C 87.759 79.414,96.874 79.316,97.232 78.958 C 97.392 78.798,97.626 78.667,97.750 78.667 C 97.874 78.667,98.123 78.479,98.304 78.250 C 98.484 78.021,98.705 77.833,98.795 77.833 C 98.885 77.833,99.053 77.721,99.167 77.583 C 99.281 77.446,99.481 77.333,99.611 77.333 C 99.865 77.333,100.092 77.175,100.865 76.458 C 101.137 76.206,101.416 76.000,101.486 76.000 C 101.556 76.000,101.944 75.656,102.348 75.235 C 102.752 74.815,103.363 74.204,103.706 73.877 C 104.048 73.551,104.493 72.920,104.694 72.476 C 104.895 72.031,105.108 71.667,105.168 71.667 C 105.228 71.667,105.456 71.123,105.674 70.458 C 105.893 69.794,106.121 69.212,106.181 69.167 C 106.339 69.047,106.833 66.778,106.833 66.175 C 106.833 65.896,106.908 65.667,107.000 65.667 C 107.385 65.667,107.131 64.864,106.574 64.324 L 105.982 63.750 103.068 63.750 C 100.999 63.750,100.119 63.807,100.032 63.948 C 99.965 64.057,99.705 64.224,99.455 64.319 C 99.205 64.414,99.000 64.594,99.000 64.720 C 99.000 64.846,98.854 65.080,98.677 65.241 C 98.462 65.435,98.319 65.852,98.251 66.475 C 98.094 67.921,98.043 68.072,97.505 68.682 C 97.229 68.994,96.961 69.362,96.910 69.500 C 96.778 69.851,95.244 70.991,94.611 71.208 C 94.321 71.307,94.036 71.459,93.979 71.546 C 93.826 71.776,89.851 71.795,89.702 71.566 C 89.637 71.465,89.299 71.249,88.951 71.085 C 87.980 70.629,85.251 67.814,84.907 66.915 C 84.750 66.503,84.571 66.167,84.509 66.167 C 84.447 66.167,84.222 65.492,84.009 64.667 C 83.796 63.842,83.570 63.167,83.506 63.167 C 83.442 63.167,83.250 62.398,83.080 61.458 C 82.910 60.519,82.706 59.706,82.627 59.652 C 81.924 59.171,81.963 44.500,82.668 44.500 C 82.808 44.500,83.094 42.981,83.247 41.423 C 83.301 40.877,83.414 40.387,83.498 40.335 C 83.582 40.283,83.819 39.567,84.025 38.745 C 84.230 37.923,84.453 37.212,84.519 37.165 C 84.586 37.118,84.802 36.668,85.000 36.165 C 85.198 35.662,85.467 35.190,85.597 35.117 C 85.727 35.043,85.833 34.908,85.833 34.817 C 85.833 34.503,87.232 32.667,87.471 32.667 C 87.603 32.667,87.968 32.394,88.283 32.060 C 88.701 31.617,89.064 31.414,89.627 31.309 C 90.051 31.229,90.440 31.101,90.491 31.023 C 90.925 30.356,94.451 30.464,95.205 31.167 C 95.402 31.350,95.661 31.500,95.780 31.500 C 95.899 31.500,96.091 31.650,96.205 31.833 C 96.320 32.017,96.537 32.167,96.689 32.167 C 96.854 32.167,97.070 32.432,97.231 32.833 C 97.377 33.200,97.556 33.500,97.629 33.500 C 97.701 33.500,97.908 33.881,98.088 34.347 C 98.269 34.813,98.506 35.268,98.614 35.359 C 98.723 35.449,98.944 36.034,99.104 36.658 C 99.476 38.102,99.519 38.123,102.232 38.264 C 103.479 38.329,104.500 38.446,104.500 38.524 C 104.500 39.281,106.053 38.446,107.058 37.148 C 107.414 36.688,107.378 32.654,107.016 32.533 C 106.916 32.500,106.833 32.369,106.833 32.242 C 106.833 31.944,106.311 30.815,106.042 30.530 C 105.927 30.409,105.833 30.240,105.833 30.154 C 105.833 30.069,105.496 29.643,105.084 29.208 C 104.672 28.773,104.335 28.320,104.334 28.201 C 104.333 27.931,104.137 27.690,103.022 26.589 C 101.765 25.349,101.569 25.193,100.870 24.870 C 100.529 24.712,100.212 24.534,100.167 24.474 C 100.121 24.414,99.638 24.209,99.094 24.018 C 98.550 23.827,98.063 23.603,98.011 23.522 C 97.959 23.440,97.392 23.197,96.750 22.981 C 96.108 22.765,95.541 22.530,95.489 22.459 C 95.367 22.292,92.777 22.198,90.417 22.275 M141.458 22.280 C 140.351 22.316,139.500 22.414,139.500 22.505 C 139.500 22.594,139.397 22.667,139.271 22.667 C 139.005 22.667,137.456 23.327,137.333 23.493 C 137.287 23.556,136.894 23.777,136.458 23.985 C 136.023 24.193,135.667 24.426,135.667 24.504 C 135.667 24.581,135.530 24.688,135.363 24.741 C 135.196 24.794,134.914 24.970,134.738 25.131 C 134.561 25.293,134.154 25.609,133.833 25.833 C 133.512 26.058,133.113 26.412,132.946 26.621 C 132.779 26.829,132.573 27.000,132.488 27.000 C 132.204 27.000,130.254 29.092,129.917 29.758 C 129.733 30.120,129.537 30.454,129.481 30.500 C 129.262 30.679,128.341 32.631,128.066 33.500 C 127.906 34.004,127.725 34.454,127.663 34.500 C 127.601 34.546,127.422 35.146,127.265 35.833 C 127.109 36.521,126.907 37.218,126.818 37.382 C 126.729 37.546,126.579 38.296,126.486 39.048 C 126.303 40.531,126.015 41.693,125.793 41.847 C 125.716 41.901,125.616 43.101,125.571 44.514 C 125.526 45.927,125.418 48.171,125.331 49.500 C 125.046 53.827,125.300 58.319,125.849 58.673 C 125.926 58.722,126.035 59.510,126.092 60.423 C 126.194 62.053,126.540 63.885,126.813 64.238 C 126.889 64.336,127.089 65.035,127.257 65.792 C 127.425 66.548,127.615 67.167,127.678 67.167 C 127.741 67.167,127.961 67.617,128.167 68.167 C 128.372 68.717,128.599 69.167,128.670 69.167 C 128.742 69.167,128.935 69.542,129.100 70.000 C 129.264 70.458,129.448 70.833,129.508 70.833 C 129.568 70.833,129.795 71.283,130.014 71.833 C 130.232 72.383,130.458 72.833,130.516 72.833 C 130.574 72.833,130.755 73.190,130.918 73.625 C 131.081 74.060,131.354 74.551,131.524 74.715 C 131.694 74.879,131.833 75.067,131.833 75.132 C 131.833 75.198,132.190 75.417,132.625 75.619 C 133.060 75.820,133.567 76.213,133.750 76.492 C 133.933 76.771,134.159 76.999,134.252 77.000 C 134.344 77.000,134.508 77.141,134.615 77.313 C 134.736 77.507,135.099 77.669,135.572 77.740 C 135.991 77.802,136.333 77.918,136.333 77.996 C 136.333 78.075,136.854 78.300,137.490 78.497 C 138.126 78.694,138.676 78.944,138.712 79.052 C 138.802 79.324,148.289 79.337,148.464 79.065 C 148.530 78.963,148.831 78.753,149.134 78.598 C 149.436 78.443,149.725 78.207,149.776 78.075 C 149.827 77.942,149.964 77.833,150.081 77.833 C 150.197 77.833,150.386 77.721,150.500 77.583 C 150.614 77.446,150.816 77.333,150.949 77.333 C 151.082 77.333,151.287 77.240,151.405 77.125 C 151.524 77.010,151.906 76.692,152.255 76.417 C 153.199 75.672,155.500 73.383,155.500 73.187 C 155.500 73.093,155.598 72.957,155.717 72.883 C 155.837 72.810,156.109 72.337,156.322 71.833 C 156.534 71.329,156.759 70.879,156.821 70.833 C 156.958 70.732,157.500 69.053,157.500 68.731 C 157.500 68.604,157.561 68.500,157.636 68.500 C 157.776 68.500,158.089 67.051,158.265 65.583 C 158.360 64.794,158.335 64.723,157.808 64.250 L 157.250 63.750 154.486 63.692 C 152.323 63.647,151.672 63.683,151.486 63.861 C 151.356 63.985,151.044 64.178,150.792 64.290 C 150.540 64.402,150.333 64.580,150.333 64.686 C 150.333 64.793,150.217 64.965,150.074 65.069 C 149.778 65.286,149.510 66.291,149.504 67.208 C 149.502 67.552,149.434 67.833,149.354 67.833 C 149.273 67.833,149.113 68.061,148.997 68.340 C 148.882 68.619,148.665 68.937,148.516 69.048 C 148.366 69.159,148.110 69.460,147.946 69.717 C 147.782 69.974,147.520 70.232,147.365 70.290 C 147.210 70.347,146.995 70.517,146.887 70.667 C 146.779 70.816,146.367 71.043,145.970 71.171 C 145.574 71.298,145.203 71.470,145.147 71.551 C 145.001 71.760,141.183 71.790,141.036 71.583 C 140.970 71.492,140.617 71.267,140.250 71.083 C 139.558 70.737,136.500 67.842,136.500 67.533 C 136.500 67.436,136.393 67.250,136.262 67.119 C 136.023 66.881,135.333 64.975,135.333 64.556 C 135.333 64.433,135.271 64.333,135.194 64.333 C 135.055 64.333,134.500 62.280,134.500 61.768 C 134.500 61.621,134.434 61.500,134.353 61.500 C 134.096 61.500,133.683 58.017,133.568 54.875 C 133.507 53.202,133.392 51.833,133.312 51.833 C 133.232 51.833,133.167 50.858,133.167 49.667 C 133.167 48.333,133.231 47.500,133.333 47.500 C 133.425 47.500,133.498 47.181,133.496 46.792 C 133.491 46.026,134.170 43.119,134.375 43.028 C 134.444 42.997,134.500 42.633,134.500 42.218 C 134.500 41.362,134.990 39.167,135.181 39.167 C 135.250 39.167,135.355 38.923,135.414 38.625 C 135.594 37.712,136.039 36.333,136.154 36.333 C 136.214 36.333,136.445 35.921,136.667 35.417 C 136.889 34.912,137.128 34.500,137.198 34.500 C 137.268 34.500,137.439 34.279,137.579 34.009 C 137.942 33.307,138.536 32.708,139.071 32.505 C 139.324 32.408,139.569 32.189,139.614 32.018 C 139.707 31.662,140.330 31.333,140.913 31.333 C 141.131 31.333,141.414 31.229,141.541 31.102 C 142.132 30.511,145.745 30.392,146.151 30.950 C 146.205 31.025,146.539 31.236,146.893 31.418 C 147.247 31.601,147.574 31.844,147.619 31.958 C 147.665 32.073,147.775 32.167,147.863 32.167 C 148.144 32.167,148.473 32.602,148.857 33.480 C 149.061 33.949,149.283 34.333,149.348 34.333 C 149.413 34.333,149.601 34.708,149.766 35.167 C 149.931 35.625,150.119 36.000,150.183 36.000 C 150.247 36.000,150.392 36.394,150.505 36.875 C 150.803 38.146,150.756 38.123,153.345 38.256 C 154.626 38.322,155.714 38.442,155.763 38.522 C 156.153 39.151,157.643 38.341,158.248 37.170 C 158.754 36.193,158.414 31.948,157.778 31.297 C 157.663 31.180,157.467 30.833,157.342 30.528 C 157.217 30.222,156.763 29.617,156.333 29.182 C 155.903 28.747,155.504 28.210,155.447 27.988 C 155.328 27.522,153.613 25.725,153.146 25.577 C 152.974 25.522,152.833 25.410,152.833 25.328 C 152.833 25.185,151.055 24.292,149.833 23.822 C 149.512 23.698,149.156 23.506,149.042 23.394 C 148.927 23.282,148.402 23.065,147.875 22.912 C 147.348 22.759,146.876 22.567,146.825 22.486 C 146.710 22.301,144.011 22.197,141.458 22.280 M333.435 29.902 C 333.520 30.126,333.498 30.185,333.360 30.100 C 333.248 30.031,333.120 30.093,333.062 30.246 C 333.006 30.392,332.744 30.624,332.480 30.760 C 331.944 31.038,331.846 31.335,332.292 31.331 C 332.512 31.329,332.530 31.294,332.364 31.189 C 332.204 31.088,332.280 30.994,332.643 30.843 C 333.371 30.542,333.781 30.048,333.520 29.788 C 333.356 29.626,333.339 29.650,333.435 29.902 M56.500 31.000 C 56.500 31.092,56.760 31.167,57.078 31.167 C 57.846 31.167,59.148 31.621,59.643 32.061 C 62.309 34.435,62.667 35.115,62.667 37.802 C 62.667 39.683,62.354 41.336,61.915 41.775 C 61.779 41.912,61.665 42.112,61.664 42.220 C 61.660 42.467,60.259 43.833,60.008 43.833 C 59.906 43.833,59.779 43.948,59.725 44.088 C 59.631 44.332,58.375 45.000,58.009 45.000 C 57.912 45.000,57.833 45.067,57.833 45.149 C 57.833 45.719,47.563 45.771,47.373 45.203 C 47.336 45.091,47.212 45.000,47.098 45.000 C 46.211 45.000,46.154 44.601,46.211 38.818 C 46.274 32.365,46.526 31.201,47.865 31.173 C 48.020 31.169,48.193 31.092,48.250 31.000 C 48.314 30.896,49.891 30.833,52.427 30.833 C 55.031 30.833,56.500 30.893,56.500 31.000 M283.125 34.513 C 282.965 34.607,282.833 34.760,282.833 34.854 C 282.833 34.947,282.733 35.124,282.611 35.247 C 282.363 35.494,282.323 37.002,281.979 59.167 C 281.870 66.179,281.718 71.942,281.641 71.972 C 281.373 72.078,281.474 76.892,281.758 77.516 C 282.578 79.322,282.589 79.328,285.536 79.331 L 287.822 79.333 288.328 78.839 L 288.833 78.345 288.833 67.360 C 288.833 61.318,288.877 56.159,288.931 55.896 C 289.044 55.343,290.507 54.105,290.626 54.462 C 290.665 54.578,290.810 54.786,290.948 54.924 C 291.167 55.143,291.491 56.062,291.783 57.292 C 291.832 57.498,291.932 57.667,292.006 57.667 C 292.079 57.667,292.301 58.192,292.500 58.833 C 292.699 59.475,292.913 60.000,292.977 60.000 C 293.042 60.000,293.195 60.356,293.318 60.792 C 293.441 61.227,293.634 61.733,293.747 61.917 C 293.860 62.100,294.127 62.775,294.341 63.417 C 294.555 64.058,294.783 64.621,294.848 64.667 C 294.913 64.712,295.123 65.229,295.314 65.814 C 295.506 66.400,295.732 66.962,295.815 67.064 C 295.898 67.166,296.086 67.658,296.234 68.157 C 296.381 68.656,296.560 69.106,296.631 69.157 C 296.703 69.208,296.945 69.813,297.168 70.500 C 297.392 71.188,297.671 71.849,297.788 71.970 C 297.904 72.091,298.000 72.301,298.000 72.437 C 298.000 72.572,298.155 72.998,298.344 73.383 C 298.533 73.768,298.804 74.421,298.945 74.833 C 299.087 75.246,299.337 75.883,299.501 76.250 C 299.665 76.617,299.898 77.254,300.018 77.667 C 300.139 78.079,300.459 78.642,300.730 78.917 L 301.223 79.417 303.873 79.470 C 307.622 79.545,307.272 80.026,307.397 74.634 C 307.782 58.156,307.898 54.240,308.001 54.167 C 308.065 54.121,308.168 51.068,308.231 47.382 C 308.294 43.697,308.415 39.887,308.500 38.916 C 308.675 36.930,308.501 35.537,308.040 35.214 C 307.880 35.103,307.657 34.932,307.544 34.835 C 307.413 34.722,306.417 34.675,304.812 34.704 C 301.233 34.769,301.635 33.375,301.545 46.030 C 301.502 52.057,301.407 56.440,301.319 56.472 C 301.235 56.503,301.167 57.187,301.167 57.993 C 301.167 58.965,301.096 59.516,300.958 59.627 C 300.648 59.877,300.021 59.576,299.835 59.088 C 299.747 58.856,299.598 58.667,299.504 58.667 C 299.410 58.667,299.333 58.560,299.333 58.429 C 299.333 58.298,299.163 58.054,298.955 57.887 C 298.733 57.709,298.409 57.068,298.169 56.333 C 297.945 55.646,297.703 55.042,297.631 54.991 C 297.560 54.939,297.382 54.489,297.236 53.991 C 297.091 53.492,296.877 52.933,296.762 52.750 C 296.647 52.567,296.414 51.967,296.245 51.417 C 296.076 50.867,295.878 50.376,295.806 50.326 C 295.734 50.276,295.522 49.758,295.336 49.175 C 295.149 48.591,294.933 48.032,294.854 47.932 C 294.775 47.832,294.540 47.225,294.331 46.583 C 294.122 45.942,293.905 45.379,293.849 45.333 C 293.793 45.288,293.604 44.837,293.429 44.333 C 293.254 43.829,293.021 43.267,292.912 43.083 C 292.803 42.900,292.584 42.319,292.425 41.792 C 292.266 41.265,292.077 40.833,292.006 40.833 C 291.934 40.833,291.737 40.222,291.567 39.475 C 291.398 38.728,291.182 38.034,291.088 37.933 C 290.890 37.722,290.331 36.191,290.333 35.864 C 290.333 35.639,289.555 34.907,288.934 34.548 C 288.495 34.294,283.551 34.265,283.125 34.513 M395.042 34.618 C 394.835 34.657,394.667 34.761,394.667 34.849 C 394.667 34.937,394.479 35.080,394.250 35.167 C 394.021 35.254,393.833 35.428,393.833 35.553 C 393.833 35.679,393.688 35.914,393.509 36.075 C 393.331 36.236,393.140 36.604,393.084 36.892 C 392.865 38.023,392.590 39.087,392.496 39.167 C 392.443 39.212,392.227 39.887,392.016 40.667 C 391.806 41.446,391.576 42.158,391.504 42.250 C 391.432 42.342,391.245 42.867,391.088 43.417 C 390.930 43.967,390.744 44.492,390.673 44.583 C 390.602 44.675,390.373 45.275,390.164 45.917 C 389.955 46.558,389.730 47.121,389.664 47.167 C 389.598 47.212,389.370 47.775,389.156 48.417 C 388.942 49.058,388.712 49.607,388.645 49.635 C 388.577 49.664,388.388 50.208,388.224 50.844 C 388.060 51.480,387.868 52.000,387.796 52.000 C 387.618 52.000,387.631 54.792,387.810 54.902 C 387.889 54.951,387.999 55.324,388.055 55.732 C 388.291 57.451,388.738 58.167,389.577 58.167 C 389.703 58.167,389.836 58.257,389.872 58.367 C 390.175 59.274,392.038 58.087,392.247 56.854 C 392.310 56.476,392.425 56.167,392.501 56.167 C 392.577 56.167,392.801 55.642,393.000 55.000 C 393.199 54.358,393.413 53.833,393.477 53.833 C 393.595 53.833,394.167 52.065,394.167 51.700 C 394.167 51.590,394.235 51.500,394.319 51.500 C 394.403 51.500,394.638 50.956,394.841 50.292 C 395.044 49.627,395.277 48.999,395.358 48.896 C 395.439 48.794,395.625 48.306,395.771 47.813 C 395.917 47.320,396.095 46.879,396.166 46.833 C 396.237 46.788,396.456 46.231,396.651 45.596 C 396.847 44.962,397.071 44.362,397.148 44.263 C 397.226 44.164,397.456 43.540,397.659 42.875 C 397.862 42.210,398.080 41.667,398.144 41.667 C 398.207 41.667,398.395 41.142,398.560 40.500 C 398.725 39.858,398.926 39.333,399.006 39.333 C 399.086 39.333,399.204 39.052,399.267 38.708 C 399.331 38.365,399.522 37.678,399.692 37.182 C 400.456 34.949,400.056 34.491,397.369 34.523 C 396.295 34.535,395.248 34.578,395.042 34.618 M265.433 34.807 C 265.386 34.884,262.475 34.996,258.965 35.057 C 251.397 35.188,251.185 35.209,250.939 35.858 C 250.841 36.120,250.702 36.333,250.630 36.333 C 250.559 36.333,250.500 45.868,250.500 57.522 L 250.500 78.711 250.864 79.027 C 251.465 79.548,251.760 79.559,259.905 79.357 C 264.220 79.250,269.157 79.163,270.877 79.165 C 272.661 79.166,274.129 79.095,274.294 79.000 C 274.453 78.908,274.791 78.760,275.045 78.670 C 275.298 78.580,275.578 78.317,275.666 78.086 C 275.753 77.856,275.889 77.667,275.966 77.667 C 276.044 77.667,276.202 77.198,276.318 76.625 C 276.433 76.052,276.593 75.283,276.673 74.917 C 277.047 73.204,276.736 71.248,276.047 70.986 C 275.531 70.790,269.847 71.249,269.667 71.501 C 269.476 71.768,258.348 71.824,258.083 71.559 C 257.871 71.347,257.833 70.462,257.833 65.693 L 257.833 60.077 258.247 59.469 C 258.791 58.668,259.837 58.544,263.000 58.906 C 266.814 59.342,268.987 59.114,269.004 58.275 C 269.006 58.170,269.154 57.896,269.333 57.667 C 269.687 57.214,269.806 55.606,269.500 55.417 C 269.408 55.360,269.332 55.074,269.331 54.782 C 269.323 52.990,268.470 51.296,267.466 51.076 C 267.212 51.020,266.961 50.905,266.909 50.821 C 266.787 50.624,264.046 50.617,263.972 50.813 C 263.942 50.894,262.746 51.014,261.315 51.080 L 258.713 51.200 258.315 50.641 C 257.930 50.102,257.915 49.964,257.861 46.539 L 257.805 42.995 258.444 42.728 C 259.245 42.393,267.594 42.509,271.583 42.911 C 275.809 43.336,276.206 43.265,276.652 42.000 C 276.798 41.587,276.973 41.225,277.042 41.194 C 277.222 41.114,277.196 39.000,277.014 39.000 C 276.930 39.000,276.808 38.421,276.741 37.714 C 276.606 36.268,275.888 35.269,274.833 35.058 C 274.554 35.003,274.286 34.892,274.237 34.812 C 274.122 34.625,265.548 34.620,265.433 34.807 M349.167 35.007 C 346.371 35.057,343.920 35.158,343.721 35.231 L 343.359 35.366 343.263 54.474 C 343.210 64.984,343.128 74.708,343.082 76.083 C 342.968 79.438,342.777 79.234,346.102 79.307 C 349.589 79.383,349.305 79.502,350.191 77.597 C 350.466 77.005,350.416 70.551,350.134 70.210 C 350.024 70.078,349.953 68.160,349.939 64.954 L 349.917 59.906 350.464 59.370 L 351.011 58.833 353.767 58.833 C 356.998 58.833,357.080 58.862,357.333 60.083 C 357.438 60.587,357.581 61.000,357.652 61.000 C 357.722 61.000,357.955 61.994,358.170 63.208 C 358.385 64.423,358.608 65.454,358.667 65.500 C 358.725 65.546,358.950 66.633,359.167 67.917 C 359.383 69.200,359.612 70.287,359.674 70.333 C 359.737 70.379,359.924 71.204,360.090 72.167 C 360.256 73.129,360.437 73.954,360.492 74.000 C 360.548 74.046,360.767 74.871,360.980 75.833 C 361.193 76.796,361.434 77.608,361.517 77.639 C 361.599 77.669,361.667 77.779,361.667 77.883 C 361.667 77.987,361.789 78.393,361.939 78.786 L 362.212 79.500 365.114 79.500 L 368.016 79.500 368.425 79.059 C 369.130 78.297,368.930 76.270,367.932 74.083 C 367.807 73.808,367.615 73.060,367.507 72.419 C 367.399 71.779,367.254 71.217,367.186 71.169 C 367.118 71.122,366.891 70.352,366.681 69.458 C 366.471 68.565,366.245 67.833,366.178 67.833 C 366.111 67.833,365.924 67.215,365.762 66.458 C 365.599 65.702,365.411 65.046,365.343 65.000 C 365.275 64.954,365.049 64.204,364.840 63.333 C 364.632 62.462,364.407 61.712,364.341 61.667 C 364.138 61.526,363.462 57.842,363.564 57.434 C 363.617 57.223,364.412 56.309,365.330 55.403 C 366.249 54.497,367.000 53.690,367.000 53.610 C 367.000 53.530,367.188 53.317,367.417 53.137 C 367.646 52.957,367.833 52.710,367.833 52.589 C 367.833 52.468,367.931 52.331,368.051 52.285 C 369.111 51.879,369.104 42.466,368.043 41.678 C 367.974 41.626,367.767 41.283,367.585 40.917 C 367.403 40.550,367.159 40.190,367.043 40.117 C 366.928 40.043,366.831 39.856,366.828 39.700 C 366.825 39.544,366.601 39.117,366.331 38.750 C 366.060 38.383,365.754 37.923,365.651 37.727 C 365.548 37.531,365.303 37.285,365.107 37.181 C 364.910 37.078,364.519 36.823,364.238 36.616 C 363.956 36.409,363.393 36.132,362.988 36.002 C 362.582 35.871,362.209 35.705,362.158 35.634 C 361.965 35.360,360.194 35.167,357.852 35.163 C 356.513 35.161,355.154 35.104,354.833 35.038 C 354.512 34.971,351.962 34.957,349.167 35.007 M189.792 35.203 L 189.333 35.398 189.335 52.741 C 189.337 63.789,189.266 71.505,189.141 74.001 C 188.862 79.532,188.737 79.335,192.526 79.331 C 196.506 79.327,196.433 79.442,196.378 73.266 C 196.353 70.512,196.276 68.901,196.166 68.833 C 195.862 68.645,195.862 60.144,196.167 59.777 C 196.997 58.777,196.783 58.833,199.761 58.833 C 202.924 58.833,203.046 58.872,203.328 59.952 C 203.442 60.391,203.636 60.977,203.758 61.254 C 203.880 61.531,204.107 62.506,204.262 63.421 C 204.417 64.335,204.597 65.121,204.662 65.167 C 204.728 65.212,204.957 66.300,205.171 67.583 C 205.386 68.867,205.610 69.954,205.670 70.000 C 205.729 70.046,205.917 70.927,206.087 71.958 C 206.257 72.990,206.448 73.833,206.510 73.833 C 206.573 73.833,206.674 74.152,206.734 74.542 C 206.896 75.582,207.361 77.404,207.489 77.500 C 207.550 77.546,207.697 77.921,207.817 78.333 C 208.164 79.531,208.078 79.500,211.093 79.500 C 214.179 79.500,214.587 79.408,214.747 78.679 C 214.809 78.399,214.928 78.128,215.013 78.075 C 215.221 77.947,215.210 76.667,215.000 76.667 C 214.908 76.667,214.833 76.557,214.833 76.422 C 214.833 76.149,214.314 74.965,214.134 74.829 C 214.070 74.781,213.851 73.881,213.647 72.829 C 213.443 71.777,213.227 70.879,213.166 70.833 C 213.104 70.787,212.887 70.039,212.682 69.169 C 212.477 68.300,212.248 67.513,212.173 67.419 C 212.098 67.326,211.903 66.688,211.740 66.000 C 211.576 65.313,211.386 64.712,211.317 64.665 C 211.248 64.618,211.027 63.905,210.825 63.081 C 210.623 62.257,210.404 61.546,210.337 61.500 C 210.159 61.377,209.667 58.771,209.667 57.950 C 209.667 57.073,209.755 56.947,211.738 54.996 C 212.621 54.127,213.506 53.154,213.705 52.833 C 213.903 52.512,214.127 52.208,214.201 52.156 C 214.275 52.104,214.464 51.467,214.619 50.739 C 214.775 50.012,214.962 49.392,215.035 49.361 C 215.234 49.277,215.200 44.333,215.000 44.333 C 214.908 44.333,214.833 44.159,214.833 43.947 C 214.833 43.416,214.351 41.833,214.189 41.833 C 214.116 41.833,213.881 41.458,213.667 41.000 C 213.452 40.542,213.220 40.167,213.151 40.167 C 213.082 40.167,212.945 39.923,212.847 39.625 C 212.374 38.195,210.755 36.638,209.131 36.054 C 208.692 35.897,208.333 35.715,208.333 35.651 C 208.333 35.170,190.860 34.748,189.792 35.203 M220.887 35.116 C 220.171 35.256,220.183 35.000,220.000 53.177 C 219.889 64.173,219.762 70.771,219.661 70.806 C 219.564 70.839,219.500 72.409,219.500 74.786 L 219.500 78.712 219.925 79.106 C 220.432 79.575,225.270 79.728,225.637 79.286 C 225.883 78.989,226.164 77.140,226.165 75.806 C 226.166 75.194,226.237 74.669,226.323 74.639 C 226.414 74.607,226.541 71.566,226.627 67.377 C 226.708 63.413,226.832 60.113,226.902 60.043 C 226.972 59.974,228.804 59.904,230.973 59.889 C 234.940 59.861,237.979 59.635,238.155 59.354 C 238.207 59.271,238.588 59.103,239.000 58.980 C 239.906 58.710,243.068 55.691,243.649 54.542 C 243.846 54.152,244.065 53.833,244.137 53.833 C 244.314 53.833,244.614 52.913,244.744 51.966 C 244.803 51.534,244.973 50.938,245.121 50.641 C 245.615 49.650,245.546 43.929,245.028 42.878 C 244.948 42.716,244.740 42.283,244.567 41.917 C 244.393 41.550,244.157 41.151,244.042 41.030 C 243.927 40.909,243.833 40.722,243.833 40.615 C 243.833 39.889,240.951 36.833,240.266 36.833 C 240.120 36.833,240.000 36.774,240.000 36.702 C 240.000 36.629,239.588 36.389,239.083 36.167 C 238.579 35.945,238.167 35.711,238.167 35.647 C 238.167 35.100,223.315 34.643,220.887 35.116 M168.260 36.562 C 167.789 37.047,167.684 37.316,167.499 38.520 C 167.381 39.288,167.233 39.954,167.171 40.000 C 167.108 40.046,166.885 41.283,166.675 42.750 C 166.465 44.217,166.239 45.454,166.173 45.500 C 166.107 45.546,165.925 46.521,165.768 47.667 C 165.611 48.813,165.381 50.125,165.256 50.583 C 165.132 51.042,164.898 52.392,164.737 53.583 C 164.576 54.775,164.397 55.788,164.339 55.833 C 164.239 55.913,163.801 58.545,163.563 60.500 C 163.501 61.004,163.400 61.454,163.338 61.500 C 163.201 61.601,162.667 64.779,162.667 65.492 C 162.667 65.772,162.592 66.000,162.500 66.000 C 162.408 66.000,162.333 66.185,162.333 66.410 C 162.333 66.987,161.636 70.232,161.490 70.333 C 161.424 70.379,161.204 71.242,161.001 72.250 C 160.798 73.258,160.576 74.158,160.508 74.250 C 160.315 74.508,160.000 76.703,160.000 77.792 C 160.000 79.386,160.054 79.417,162.861 79.417 C 166.623 79.417,166.653 79.393,166.841 76.220 C 166.910 75.067,167.038 74.077,167.126 74.020 C 167.213 73.963,167.377 73.635,167.489 73.290 C 167.863 72.144,167.770 72.166,172.054 72.169 C 177.272 72.172,176.920 71.980,177.163 74.957 C 177.251 76.033,177.400 76.939,177.495 76.970 C 177.589 77.002,177.668 77.190,177.670 77.389 C 177.687 79.043,178.463 79.500,181.252 79.500 L 183.526 79.500 184.013 79.013 C 184.425 78.601,184.500 78.393,184.500 77.670 C 184.500 76.632,184.164 74.500,184.000 74.500 C 183.935 74.500,183.745 73.544,183.578 72.375 C 183.411 71.206,183.224 70.212,183.163 70.167 C 183.103 70.121,182.962 69.371,182.851 68.500 C 182.463 65.463,182.275 64.333,182.157 64.333 C 182.092 64.333,181.989 63.902,181.928 63.375 C 181.628 60.756,181.303 58.558,181.183 58.333 C 181.109 58.195,180.914 57.183,180.749 56.083 C 180.584 54.983,180.396 54.046,180.330 54.000 C 180.265 53.954,180.047 52.803,179.846 51.441 C 179.646 50.080,179.414 48.842,179.331 48.691 C 179.180 48.414,178.784 46.093,178.573 44.250 C 178.510 43.700,178.403 43.175,178.334 43.083 C 178.266 42.992,178.162 42.429,178.103 41.833 C 177.521 35.949,177.571 36.000,172.384 36.000 L 168.806 36.000 168.260 36.562 M312.963 37.123 C 312.167 37.617,312.084 41.614,312.847 42.686 L 313.189 43.167 317.011 43.167 C 319.448 43.167,320.833 43.227,320.833 43.333 C 320.833 43.425,320.971 43.500,321.140 43.500 C 321.463 43.500,321.833 44.126,321.833 44.675 C 321.833 44.854,321.908 45.000,322.000 45.000 C 322.212 45.000,322.229 53.367,322.018 53.592 C 321.837 53.784,321.495 67.054,321.498 73.769 L 321.500 78.621 321.939 79.061 C 322.374 79.495,322.407 79.500,324.786 79.500 L 327.192 79.500 327.679 79.013 L 328.167 78.526 328.167 61.788 C 328.167 50.863,328.226 44.881,328.336 44.563 C 328.659 43.636,328.903 43.583,332.845 43.583 C 336.047 43.583,336.472 43.551,336.732 43.292 C 336.893 43.131,337.086 43.000,337.162 43.000 C 337.702 43.000,338.007 39.620,337.588 38.288 C 337.204 37.068,337.747 37.150,329.000 36.997 C 316.233 36.773,313.493 36.795,312.963 37.123 M205.006 41.764 C 205.415 41.924,205.884 42.192,206.048 42.361 C 206.212 42.529,206.475 42.669,206.631 42.672 C 206.924 42.678,207.667 43.213,207.667 43.418 C 207.667 43.481,207.921 44.069,208.232 44.724 C 208.793 45.908,208.970 49.000,208.477 49.000 C 208.398 49.000,208.333 49.121,208.333 49.268 C 208.333 49.772,207.593 51.150,207.213 51.353 C 207.004 51.465,206.833 51.622,206.833 51.703 C 206.833 52.491,197.730 52.950,196.500 52.224 L 196.033 51.947 195.911 49.349 C 195.844 47.919,195.829 45.850,195.878 44.750 C 195.959 42.941,196.062 42.466,196.532 41.741 C 196.751 41.404,204.133 41.424,205.006 41.764 M359.128 41.850 C 359.562 42.057,359.961 42.292,360.014 42.371 C 360.068 42.450,360.325 42.571,360.585 42.641 C 360.845 42.710,361.139 42.909,361.237 43.083 C 361.336 43.256,361.548 43.548,361.708 43.731 C 361.869 43.913,362.000 44.127,362.000 44.206 C 362.000 44.285,362.150 44.660,362.333 45.039 C 362.685 45.767,362.820 48.219,362.519 48.405 C 362.438 48.455,362.319 48.847,362.255 49.276 C 362.094 50.350,361.256 51.507,360.167 52.162 C 359.629 52.485,351.618 52.634,350.627 52.339 C 349.797 52.093,349.804 52.148,349.865 46.907 C 349.916 42.516,349.925 42.407,350.294 41.991 L 350.671 41.565 354.505 41.519 C 358.193 41.475,358.369 41.487,359.128 41.850 M235.965 42.266 C 236.081 42.445,236.834 42.896,237.337 43.089 C 237.476 43.142,237.775 43.462,238.002 43.801 C 238.228 44.140,238.505 44.475,238.617 44.546 C 239.405 45.049,239.301 49.391,238.477 50.426 C 236.704 52.652,236.056 52.890,231.565 52.963 C 228.682 53.009,227.828 52.975,227.641 52.803 C 227.510 52.682,227.256 52.500,227.076 52.399 C 226.307 51.963,226.563 43.369,227.373 42.428 L 227.750 41.992 231.798 42.037 C 234.501 42.068,235.885 42.144,235.965 42.266 M173.056 51.792 C 173.183 52.044,173.341 52.474,173.406 52.748 C 173.472 53.022,173.583 53.285,173.652 53.332 C 173.721 53.378,173.943 54.279,174.145 55.333 C 174.348 56.387,174.582 57.400,174.667 57.583 C 174.848 57.978,175.333 61.258,175.333 62.088 C 175.333 62.406,175.408 62.667,175.500 62.667 C 175.972 62.667,175.678 65.014,175.138 65.554 L 174.609 66.083 172.444 66.083 C 170.859 66.083,170.259 66.027,170.209 65.875 C 170.170 65.760,170.045 65.667,169.930 65.667 C 169.662 65.667,169.334 64.952,169.332 64.367 C 169.330 63.646,169.868 60.092,169.993 60.000 C 170.055 59.954,170.243 59.110,170.410 58.125 C 170.576 57.140,170.767 56.333,170.834 56.333 C 170.900 56.333,171.084 55.677,171.243 54.875 C 171.402 54.073,171.675 53.102,171.849 52.717 C 172.024 52.333,172.167 51.914,172.167 51.787 C 172.167 51.181,172.749 51.184,173.056 51.792 " stroke="none" fill="#040404" fill-rule="evenodd"></path><path id="path2" d="M346.894 11.083 C 346.895 12.000,346.923 12.354,346.956 11.869 C 346.990 11.385,346.990 10.635,346.956 10.203 C 346.921 9.770,346.894 10.167,346.894 11.083 " stroke="none" fill="#080c60" fill-rule="evenodd"></path><path id="path3" d="" stroke="none" fill="#080c1c" fill-rule="evenodd"></path><path id="path4" d="" stroke="none" fill="#081004" fill-rule="evenodd"></path></g></svg>