<svg xmlns="http://www.w3.org/2000/svg" xmlns:xlink="http://www.w3.org/1999/xlink"
     version="1.1" viewBox="0 0 100 100">


    <g transform="
                    translate(50 50)
                    translate(0 0)  scale(1)  
                    translate(-50 -50)
                    ">


        <g fill="#BA4A00" transform="scale(2.0833333333333335) translate(0 9.5367431640625e-7)"
           id="picture">
            <path d="M47 33.3H1c-.5 0-1 .4-1 1v10c0 .6.5 1 1 1h46c.6 0 1-.4 1-1v-10c0-.5-.4-1-1-1zm-18.7 8.5c-1.4 0-2.5-1.1-2.5-2.5s1.1-2.5 2.5-2.5 2.5 1.1 2.5 2.5-1.1 2.5-2.5 2.5zm6.4 0c-1.4 0-2.5-1.1-2.5-2.5s1.1-2.5 2.5-2.5 2.5 1.1 2.5 2.5-1.1 2.5-2.5 2.5zm6.4 0c-1.4 0-2.5-1.1-2.5-2.5s1.1-2.5 2.5-2.5 2.5 1.1 2.5 2.5-1.1 2.5-2.5 2.5zM47 18H1c-.5 0-1 .4-1 1v10c0 .6.5 1 1 1h46c.6 0 1-.4 1-1V19c0-.6-.4-1-1-1zm-18.7 8.5c-1.4 0-2.5-1.1-2.5-2.5s1.1-2.5 2.5-2.5 2.5 1.1 2.5 2.5-1.1 2.5-2.5 2.5zm6.4 0c-1.4 0-2.5-1.1-2.5-2.5s1.1-2.5 2.5-2.5 2.5 1.1 2.5 2.5-1.1 2.5-2.5 2.5zm6.4 0c-1.4 0-2.5-1.1-2.5-2.5s1.1-2.5 2.5-2.5 2.5 1.1 2.5 2.5-1.1 2.5-2.5 2.5zM47 2.7H1c-.5 0-1 .4-1 1v10c0 .6.5 1 1 1h46c.6 0 1-.4 1-1v-10c0-.6-.4-1-1-1zm-18.7 8.5c-1.4 0-2.5-1.1-2.5-2.5s1.1-2.5 2.5-2.5 2.5 1.1 2.5 2.5-1.1 2.5-2.5 2.5zm6.4 0c-1.4 0-2.5-1.1-2.5-2.5s1.1-2.5 2.5-2.5 2.5 1.1 2.5 2.5-1.1 2.5-2.5 2.5zm6.4 0c-1.4 0-2.5-1.1-2.5-2.5s1.1-2.5 2.5-2.5 2.5 1.1 2.5 2.5-1.1 2.5-2.5 2.5z"/>
        </g>


    </g>


</svg>
